<svg width="248" height="37" viewBox="0 0 248 37" fill="none" xmlns="http://www.w3.org/2000/svg">
<path d="M0.5 18.5C0.5 8.55888 8.55888 0.5 18.5 0.5H229.5C239.441 0.5 247.5 8.55888 247.5 18.5C247.5 28.4411 239.441 36.5 229.5 36.5H18.5C8.55887 36.5 0.5 28.4411 0.5 18.5Z" stroke="#F88312"/>
<path d="M21.3412 23V13.9H25.7872C26.9312 13.9 27.7892 14.1167 28.3612 14.55C28.9419 14.9833 29.2322 15.5553 29.2322 16.266C29.2322 16.7427 29.1152 17.1587 28.8812 17.514C28.6472 17.8607 28.3265 18.1293 27.9192 18.32C27.5119 18.5107 27.0439 18.606 26.5152 18.606L26.7622 18.073C27.3342 18.073 27.8412 18.1683 28.2832 18.359C28.7252 18.541 29.0675 18.814 29.3102 19.178C29.5615 19.542 29.6872 19.9883 29.6872 20.517C29.6872 21.297 29.3795 21.908 28.7642 22.35C28.1489 22.7833 27.2432 23 26.0472 23H21.3412ZM23.4342 21.414H25.8912C26.4372 21.414 26.8489 21.3273 27.1262 21.154C27.4122 20.972 27.5552 20.686 27.5552 20.296C27.5552 19.9147 27.4122 19.633 27.1262 19.451C26.8489 19.2603 26.4372 19.165 25.8912 19.165H23.2782V17.631H25.5272C26.0385 17.631 26.4285 17.5443 26.6972 17.371C26.9745 17.189 27.1132 16.916 27.1132 16.552C27.1132 16.1967 26.9745 15.9323 26.6972 15.759C26.4285 15.577 26.0385 15.486 25.5272 15.486H23.4342V21.414ZM35.7016 23.156C34.9823 23.156 34.315 23.039 33.6996 22.805C33.093 22.571 32.5643 22.2417 32.1136 21.817C31.6716 21.3923 31.325 20.894 31.0736 20.322C30.831 19.75 30.7096 19.126 30.7096 18.45C30.7096 17.774 30.831 17.15 31.0736 16.578C31.325 16.006 31.676 15.5077 32.1266 15.083C32.5773 14.6583 33.106 14.329 33.7126 14.095C34.3193 13.861 34.978 13.744 35.6886 13.744C36.408 13.744 37.0666 13.861 37.6646 14.095C38.2713 14.329 38.7956 14.6583 39.2376 15.083C39.6883 15.5077 40.0393 16.006 40.2906 16.578C40.542 17.1413 40.6676 17.7653 40.6676 18.45C40.6676 19.126 40.542 19.7543 40.2906 20.335C40.0393 20.907 39.6883 21.4053 39.2376 21.83C38.7956 22.246 38.2713 22.571 37.6646 22.805C37.0666 23.039 36.4123 23.156 35.7016 23.156ZM35.6886 21.362C36.096 21.362 36.4686 21.2927 36.8066 21.154C37.1533 21.0153 37.4566 20.816 37.7166 20.556C37.9766 20.296 38.176 19.9883 38.3146 19.633C38.462 19.2777 38.5356 18.8833 38.5356 18.45C38.5356 18.0167 38.462 17.6223 38.3146 17.267C38.176 16.9117 37.9766 16.604 37.7166 16.344C37.4653 16.084 37.1663 15.8847 36.8196 15.746C36.473 15.6073 36.096 15.538 35.6886 15.538C35.2813 15.538 34.9043 15.6073 34.5576 15.746C34.2196 15.8847 33.9206 16.084 33.6606 16.344C33.4006 16.604 33.197 16.9117 33.0496 17.267C32.911 17.6223 32.8416 18.0167 32.8416 18.45C32.8416 18.8747 32.911 19.269 33.0496 19.633C33.197 19.9883 33.3963 20.296 33.6476 20.556C33.9076 20.816 34.211 21.0153 34.5576 21.154C34.9043 21.2927 35.2813 21.362 35.6886 21.362ZM44.0084 23V15.616H41.0964V13.9H49.0264V15.616H46.1144V23H44.0084ZM54.4526 23.156C53.7333 23.156 53.0659 23.039 52.4506 22.805C51.8439 22.571 51.3153 22.2417 50.8646 21.817C50.4226 21.3923 50.0759 20.894 49.8246 20.322C49.5819 19.75 49.4606 19.126 49.4606 18.45C49.4606 17.774 49.5819 17.15 49.8246 16.578C50.0759 16.006 50.4269 15.5077 50.8776 15.083C51.3283 14.6583 51.8569 14.329 52.4636 14.095C53.0703 13.861 53.7289 13.744 54.4396 13.744C55.1589 13.744 55.8176 13.861 56.4156 14.095C57.0223 14.329 57.5466 14.6583 57.9886 15.083C58.4393 15.5077 58.7903 16.006 59.0416 16.578C59.2929 17.1413 59.4186 17.7653 59.4186 18.45C59.4186 19.126 59.2929 19.7543 59.0416 20.335C58.7903 20.907 58.4393 21.4053 57.9886 21.83C57.5466 22.246 57.0223 22.571 56.4156 22.805C55.8176 23.039 55.1633 23.156 54.4526 23.156ZM54.4396 21.362C54.8469 21.362 55.2196 21.2927 55.5576 21.154C55.9043 21.0153 56.2076 20.816 56.4676 20.556C56.7276 20.296 56.9269 19.9883 57.0656 19.633C57.2129 19.2777 57.2866 18.8833 57.2866 18.45C57.2866 18.0167 57.2129 17.6223 57.0656 17.267C56.9269 16.9117 56.7276 16.604 56.4676 16.344C56.2163 16.084 55.9173 15.8847 55.5706 15.746C55.2239 15.6073 54.8469 15.538 54.4396 15.538C54.0323 15.538 53.6553 15.6073 53.3086 15.746C52.9706 15.8847 52.6716 16.084 52.4116 16.344C52.1516 16.604 51.9479 16.9117 51.8006 17.267C51.6619 17.6223 51.5926 18.0167 51.5926 18.45C51.5926 18.8747 51.6619 19.269 51.8006 19.633C51.9479 19.9883 52.1473 20.296 52.3986 20.556C52.6586 20.816 52.9619 21.0153 53.3086 21.154C53.6553 21.2927 54.0323 21.362 54.4396 21.362ZM53.2566 13.159L55.0116 11.287H57.1956L54.8426 13.159H53.2566ZM61.0014 23V13.9H62.7434L68.1124 20.452H67.2674V13.9H69.3474V23H67.6184L62.2364 16.448H63.0814V23H61.0014ZM75.182 23V13.9H79.316C80.304 13.9 81.175 14.0907 81.929 14.472C82.683 14.8447 83.2724 15.369 83.697 16.045C84.1217 16.721 84.334 17.5227 84.334 18.45C84.334 19.3687 84.1217 20.1703 83.697 20.855C83.2724 21.531 82.683 22.0597 81.929 22.441C81.175 22.8137 80.304 23 79.316 23H75.182ZM77.288 21.271H79.212C79.8187 21.271 80.343 21.1583 80.785 20.933C81.2357 20.699 81.5824 20.3697 81.825 19.945C82.0764 19.5203 82.202 19.022 82.202 18.45C82.202 17.8693 82.0764 17.371 81.825 16.955C81.5824 16.5303 81.2357 16.2053 80.785 15.98C80.343 15.746 79.8187 15.629 79.212 15.629H77.288V21.271ZM87.8593 17.566H92.2403V19.204H87.8593V17.566ZM88.0153 21.31H92.9683V23H85.9223V13.9H92.7993V15.59H88.0153V21.31ZM97.1296 23L101.186 13.9H103.266L107.335 23H105.125L101.797 14.966H102.629L99.2876 23H97.1296ZM99.1576 21.05L99.7166 19.451H104.397L104.969 21.05H99.1576ZM108.279 23V13.9H112.218C113.032 13.9 113.734 14.0343 114.324 14.303C114.913 14.563 115.368 14.94 115.689 15.434C116.009 15.928 116.17 16.5173 116.17 17.202C116.17 17.878 116.009 18.463 115.689 18.957C115.368 19.4423 114.913 19.815 114.324 20.075C113.734 20.335 113.032 20.465 112.218 20.465H109.449L110.385 19.542V23H108.279ZM114.064 23L111.789 19.698H114.038L116.339 23H114.064ZM110.385 19.776L109.449 18.788H112.101C112.751 18.788 113.236 18.6493 113.557 18.372C113.877 18.086 114.038 17.696 114.038 17.202C114.038 16.6993 113.877 16.3093 113.557 16.032C113.236 15.7547 112.751 15.616 112.101 15.616H109.449L110.385 14.615V19.776ZM117.838 23V13.9H121.777C122.592 13.9 123.294 14.0343 123.883 14.303C124.473 14.563 124.928 14.94 125.248 15.434C125.569 15.928 125.729 16.5173 125.729 17.202C125.729 17.878 125.569 18.463 125.248 18.957C124.928 19.4423 124.473 19.815 123.883 20.075C123.294 20.335 122.592 20.465 121.777 20.465H119.008L119.944 19.542V23H117.838ZM123.623 23L121.348 19.698H123.597L125.898 23H123.623ZM119.944 19.776L119.008 18.788H121.66C122.31 18.788 122.796 18.6493 123.116 18.372C123.437 18.086 123.597 17.696 123.597 17.202C123.597 16.6993 123.437 16.3093 123.116 16.032C122.796 15.7547 122.31 15.616 121.66 15.616H119.008L119.944 14.615V19.776ZM129.335 17.566H133.716V19.204H129.335V17.566ZM129.491 21.31H134.444V23H127.398V13.9H134.275V15.59H129.491V21.31ZM136.12 23V13.9H140.059C140.873 13.9 141.575 14.0343 142.165 14.303C142.754 14.563 143.209 14.94 143.53 15.434C143.85 15.928 144.011 16.5173 144.011 17.202C144.011 17.878 143.85 18.463 143.53 18.957C143.209 19.451 142.754 19.8323 142.165 20.101C141.575 20.361 140.873 20.491 140.059 20.491H137.29L138.226 19.542V23H136.12ZM138.226 19.776L137.29 18.775H139.942C140.592 18.775 141.077 18.6363 141.398 18.359C141.718 18.0817 141.879 17.696 141.879 17.202C141.879 16.6993 141.718 16.3093 141.398 16.032C141.077 15.7547 140.592 15.616 139.942 15.616H137.29L138.226 14.615V19.776ZM147.451 17.566H151.832V19.204H147.451V17.566ZM147.607 21.31H152.56V23H145.514V13.9H152.391V15.59H147.607V21.31ZM154.236 23V13.9H155.978L161.347 20.452H160.502V13.9H162.582V23H160.853L155.471 16.448H156.316V23H154.236ZM166.62 23V15.616H163.708V13.9H171.638V15.616H168.726V23H166.62ZM172.771 23V13.9H174.877V23H172.771ZM177.037 23V13.9H178.779L182.653 20.322H181.73L185.539 13.9H187.268L187.294 23H185.318L185.305 16.929H185.669L182.627 22.038H181.678L178.571 16.929H179.013V23H177.037ZM189.453 23V13.9H191.559V23H189.453ZM195.655 17.566H200.036V19.204H195.655V17.566ZM195.811 21.31H200.764V23H193.718V13.9H200.595V15.59H195.811V21.31ZM202.44 23V13.9H204.182L209.551 20.452H208.706V13.9H210.786V23H209.057L203.675 16.448H204.52V23H202.44ZM214.824 23V15.616H211.912V13.9H219.842V15.616H216.93V23H214.824ZM225.268 23.156C224.549 23.156 223.881 23.039 223.266 22.805C222.659 22.571 222.131 22.2417 221.68 21.817C221.238 21.3923 220.891 20.894 220.64 20.322C220.397 19.75 220.276 19.126 220.276 18.45C220.276 17.774 220.397 17.15 220.64 16.578C220.891 16.006 221.242 15.5077 221.693 15.083C222.144 14.6583 222.672 14.329 223.279 14.095C223.886 13.861 224.544 13.744 225.255 13.744C225.974 13.744 226.633 13.861 227.231 14.095C227.838 14.329 228.362 14.6583 228.804 15.083C229.255 15.5077 229.606 16.006 229.857 16.578C230.108 17.1413 230.234 17.7653 230.234 18.45C230.234 19.126 230.108 19.7543 229.857 20.335C229.606 20.907 229.255 21.4053 228.804 21.83C228.362 22.246 227.838 22.571 227.231 22.805C226.633 23.039 225.979 23.156 225.268 23.156ZM225.255 21.362C225.662 21.362 226.035 21.2927 226.373 21.154C226.72 21.0153 227.023 20.816 227.283 20.556C227.543 20.296 227.742 19.9883 227.881 19.633C228.028 19.2777 228.102 18.8833 228.102 18.45C228.102 18.0167 228.028 17.6223 227.881 17.267C227.742 16.9117 227.543 16.604 227.283 16.344C227.032 16.084 226.733 15.8847 226.386 15.746C226.039 15.6073 225.662 15.538 225.255 15.538C224.848 15.538 224.471 15.6073 224.124 15.746C223.786 15.8847 223.487 16.084 223.227 16.344C222.967 16.604 222.763 16.9117 222.616 17.267C222.477 17.6223 222.408 18.0167 222.408 18.45C222.408 18.8747 222.477 19.269 222.616 19.633C222.763 19.9883 222.963 20.296 223.214 20.556C223.474 20.816 223.777 21.0153 224.124 21.154C224.471 21.2927 224.848 21.362 225.255 21.362Z" fill="#F88312"/>
</svg>
