<svg width="223" height="43" viewBox="0 0 223 43" fill="none" xmlns="http://www.w3.org/2000/svg">
<path d="M0.5 21.5C0.5 9.90202 9.90202 0.5 21.5 0.5H201.5C213.098 0.5 222.5 9.90202 222.5 21.5C222.5 33.098 213.098 42.5 201.5 42.5H21.5C9.90202 42.5 0.5 33.098 0.5 21.5Z" stroke="#F88312"/>
<path d="M51.757 26.156C51.029 26.156 50.3313 26.0607 49.664 25.87C48.9967 25.6707 48.4593 25.415 48.052 25.103L48.767 23.517C49.157 23.7943 49.6163 24.024 50.145 24.206C50.6823 24.3793 51.224 24.466 51.77 24.466C52.186 24.466 52.5197 24.427 52.771 24.349C53.031 24.2623 53.2217 24.1453 53.343 23.998C53.4643 23.8507 53.525 23.6817 53.525 23.491C53.525 23.2483 53.4297 23.0577 53.239 22.919C53.0483 22.7717 52.797 22.6547 52.485 22.568C52.173 22.4727 51.8263 22.386 51.445 22.308C51.0723 22.2213 50.6953 22.1173 50.314 21.996C49.9413 21.8747 49.599 21.7187 49.287 21.528C48.975 21.3373 48.7193 21.086 48.52 20.774C48.3293 20.462 48.234 20.0633 48.234 19.578C48.234 19.058 48.3727 18.5857 48.65 18.161C48.936 17.7277 49.3607 17.3853 49.924 17.134C50.496 16.874 51.211 16.744 52.069 16.744C52.641 16.744 53.2043 16.8133 53.759 16.952C54.3137 17.082 54.8033 17.2813 55.228 17.55L54.578 19.149C54.1533 18.9063 53.7287 18.7287 53.304 18.616C52.8793 18.4947 52.4633 18.434 52.056 18.434C51.6487 18.434 51.315 18.4817 51.055 18.577C50.795 18.6723 50.6087 18.798 50.496 18.954C50.3833 19.1013 50.327 19.2747 50.327 19.474C50.327 19.708 50.4223 19.8987 50.613 20.046C50.8037 20.1847 51.055 20.2973 51.367 20.384C51.679 20.4707 52.0213 20.5573 52.394 20.644C52.7753 20.7307 53.1523 20.8303 53.525 20.943C53.9063 21.0557 54.253 21.2073 54.565 21.398C54.877 21.5887 55.1283 21.84 55.319 22.152C55.5183 22.464 55.618 22.8583 55.618 23.335C55.618 23.8463 55.475 24.3143 55.189 24.739C54.903 25.1637 54.474 25.506 53.902 25.766C53.3387 26.026 52.6237 26.156 51.757 26.156ZM61.1 26.156C59.8087 26.156 58.799 25.7963 58.071 25.077C57.343 24.3577 56.979 23.3307 56.979 21.996V16.9H59.085V21.918C59.085 22.7847 59.2627 23.4087 59.618 23.79C59.9734 24.1713 60.4717 24.362 61.113 24.362C61.7544 24.362 62.2527 24.1713 62.608 23.79C62.9634 23.4087 63.141 22.7847 63.141 21.918V16.9H65.221V21.996C65.221 23.3307 64.857 24.3577 64.129 25.077C63.401 25.7963 62.3914 26.156 61.1 26.156ZM67.3021 26V16.9H69.0441L72.9181 23.322H71.9951L75.8041 16.9H77.5331L77.5591 26H75.5831L75.5701 19.929H75.9341L72.8921 25.038H71.9431L68.8361 19.929H69.2781V26H67.3021ZM78.5222 26L82.5782 16.9H84.6582L88.7272 26H86.5172L83.1892 17.966H84.0212L80.6802 26H78.5222ZM80.5502 24.05L81.1092 22.451H85.7892L86.3612 24.05H80.5502ZM91.0993 26V18.616H88.1873V16.9H96.1173V18.616H93.2053V26H91.0993ZM99.1874 20.566H103.568V22.204H99.1874V20.566ZM99.3434 24.31H104.296V26H97.2504V16.9H104.127V18.59H99.3434V24.31ZM108.458 26L112.514 16.9H114.594L118.663 26H116.453L113.125 17.966H113.957L110.616 26H108.458ZM110.486 24.05L111.045 22.451H115.725L116.297 24.05H110.486ZM123.288 26V16.9H125.03L128.904 23.322H127.981L131.79 16.9H133.519L133.545 26H131.569L131.556 19.929H131.92L128.878 25.038H127.929L124.822 19.929H125.264V26H123.288ZM139.747 26.156C138.456 26.156 137.446 25.7963 136.718 25.077C135.99 24.3577 135.626 23.3307 135.626 21.996V16.9H137.732V21.918C137.732 22.7847 137.91 23.4087 138.265 23.79C138.621 24.1713 139.119 24.362 139.76 24.362C140.402 24.362 140.9 24.1713 141.255 23.79C141.611 23.4087 141.788 22.7847 141.788 21.918V16.9H143.868V21.996C143.868 23.3307 143.504 24.3577 142.776 25.077C142.048 25.7963 141.039 26.156 139.747 26.156ZM145.95 26V16.9H148.056V24.284H152.619V26H145.95ZM154.83 26V18.616H151.918V16.9H159.848V18.616H156.936V26H154.83ZM160.981 26V16.9H163.087V26H160.981ZM167.196 20.995H171.564V22.685H167.196V20.995ZM167.352 26H165.246V16.9H172.123V18.59H167.352V26ZM171.985 26L176.041 16.9H178.121L182.19 26H179.98L176.652 17.966H177.484L174.143 26H171.985ZM174.013 24.05L174.572 22.451H179.252L179.824 24.05H174.013ZM183.134 26V16.9H184.876L190.245 23.452H189.4V16.9H191.48V26H189.751L184.369 19.448H185.214V26H183.134ZM193.633 22.841L193.23 16.9H195.648L195.245 22.841H193.633ZM194.439 26.104C194.075 26.104 193.776 25.987 193.542 25.753C193.308 25.519 193.191 25.2417 193.191 24.921C193.191 24.5917 193.308 24.3187 193.542 24.102C193.776 23.8767 194.075 23.764 194.439 23.764C194.812 23.764 195.111 23.8767 195.336 24.102C195.57 24.3187 195.687 24.5917 195.687 24.921C195.687 25.2417 195.57 25.519 195.336 25.753C195.111 25.987 194.812 26.104 194.439 26.104Z" fill="#F88312"/>
<g clip-path="url(#clip0_1351_1326)">
<path d="M37.2948 16H37.2474H21.7526H21.7052C21.5117 16.0176 21.332 16.104 21.2015 16.2424C21.071 16.3808 20.9991 16.561 21 16.7477V27.2523C21 27.4506 21.082 27.6408 21.228 27.781C21.374 27.9212 21.572 28 21.7785 28H37.2215C37.428 28 37.626 27.9212 37.772 27.781C37.918 27.6408 38 27.4506 38 27.2523V16.7477C38.0009 16.561 37.929 16.3808 37.7985 16.2424C37.668 16.104 37.4883 16.0176 37.2948 16V16ZM35.9319 16.8284L29.4989 21.4802L23.0681 16.8284H35.9319ZM21.8626 27.1716V16.9941L29.2401 22.3314C29.315 22.3856 29.4062 22.415 29.5 22.415C29.5938 22.415 29.685 22.3856 29.7599 22.3314L37.1374 16.9941V27.1716H21.8626Z" fill="#F88312"/>
</g>
<defs>
<clipPath id="clip0_1351_1326">
<rect width="17" height="12" fill="white" transform="translate(21 16)"/>
</clipPath>
</defs>
</svg>
