<svg width="76" height="76" viewBox="0 0 76 76" fill="none" xmlns="http://www.w3.org/2000/svg">
<g filter="url(#filter0_d_1296_3046)">
<rect x="1" y="1" width="66" height="66" rx="15" fill="#7300BD"/>
</g>
<path d="M21.3163 44.4884C19.8005 44.4884 18.295 44.2972 16.8 43.9149C15.3049 43.5125 14.0382 42.9492 13 42.2248L14.9623 38.4825C15.7929 39.066 16.7584 39.5287 17.859 39.8708C18.9595 40.2128 20.0704 40.3839 21.1917 40.3839C22.4584 40.3839 23.4551 40.1424 24.1818 39.6595C24.9086 39.1766 25.272 38.5127 25.272 37.6676C25.272 36.8628 24.9501 36.229 24.3064 35.7663C23.6627 35.3035 22.6245 35.0721 21.1917 35.0721H18.8868V31.8428L24.9605 25.173L25.5212 26.9234H14.0902V23H29.3523V26.1689L23.3097 32.8388L20.7556 31.4203H22.2196C24.8982 31.4203 26.9228 32.0038 28.2933 33.1708C29.6637 34.3377 30.349 35.8367 30.349 37.6676C30.349 38.8547 30.0271 39.9714 29.3834 41.0176C28.7397 42.0438 27.7534 42.8788 26.4244 43.5226C25.0955 44.1665 23.3928 44.4884 21.3163 44.4884Z" fill="#EAEAEA"/>
<path d="M34.0492 44.1262V23H43.9539C46.3211 23 48.408 23.4426 50.2145 24.3279C52.0211 25.1931 53.4331 26.4104 54.4505 27.9798C55.468 29.5491 55.9767 31.4102 55.9767 33.5631C55.9767 35.6958 55.468 37.557 54.4505 39.1465C53.4331 40.7158 52.0211 41.9432 50.2145 42.8285C48.408 43.6936 46.3211 44.1262 43.9539 44.1262H34.0492ZM39.095 40.1122H43.7048C45.1583 40.1122 46.4146 39.8507 47.4736 39.3275C48.5533 38.7843 49.3839 38.0197 49.9653 37.0338C50.5675 36.048 50.8686 34.891 50.8686 33.5631C50.8686 32.2151 50.5675 31.0581 49.9653 30.0924C49.3839 29.1065 48.5533 28.352 47.4736 27.8288C46.4146 27.2856 45.1583 27.014 43.7048 27.014H39.095V40.1122Z" fill="#EAEAEA"/>
<defs>
<filter id="filter0_d_1296_3046" x="0" y="0" width="76" height="76" filterUnits="userSpaceOnUse" color-interpolation-filters="sRGB">
<feFlood flood-opacity="0" result="BackgroundImageFix"/>
<feColorMatrix in="SourceAlpha" type="matrix" values="0 0 0 0 0 0 0 0 0 0 0 0 0 0 0 0 0 0 127 0" result="hardAlpha"/>
<feOffset dx="4" dy="4"/>
<feGaussianBlur stdDeviation="2.5"/>
<feComposite in2="hardAlpha" operator="out"/>
<feColorMatrix type="matrix" values="0 0 0 0 0 0 0 0 0 0 0 0 0 0 0 0 0 0 0.25 0"/>
<feBlend mode="normal" in2="BackgroundImageFix" result="effect1_dropShadow_1296_3046"/>
<feBlend mode="normal" in="SourceGraphic" in2="effect1_dropShadow_1296_3046" result="shape"/>
</filter>
</defs>
</svg>
