<svg width="76" height="76" viewBox="0 0 76 76" fill="none" xmlns="http://www.w3.org/2000/svg">
<g filter="url(#filter0_d_1296_3034)">
<rect x="1" y="1" width="66" height="66" rx="15" fill="#7300BD"/>
</g>
<path d="M12.7794 43.9765V40.6944L21.5145 32.7236C22.2047 32.1193 22.7116 31.5774 23.0351 31.0982C23.3586 30.6189 23.5743 30.1812 23.6821 29.7853C23.8115 29.3894 23.8762 29.0247 23.8762 28.6913C23.8762 27.816 23.5635 27.1492 22.938 26.6908C22.3341 26.2115 21.439 25.9718 20.2528 25.9718C19.3038 25.9718 18.4195 26.1489 17.5999 26.5032C16.8019 26.8575 16.1225 27.4097 15.5617 28.1599L11.7441 25.7843C12.6069 24.5339 13.8147 23.5441 15.3676 22.8147C16.9205 22.0854 18.7107 21.7207 20.7381 21.7207C22.4204 21.7207 23.887 21.9916 25.138 22.5334C26.4105 23.0544 27.3918 23.7942 28.082 24.7527C28.7938 25.7113 29.1496 26.8575 29.1496 28.1911C29.1496 28.8997 29.0526 29.6082 28.8585 30.3167C28.6859 31.0044 28.3193 31.7337 27.7585 32.5048C27.2193 33.2758 26.4213 34.1406 25.3644 35.0992L18.1175 41.6947L17.1146 39.8504H29.8937V43.9765H12.7794Z" fill="#EAEAEA"/>
<path d="M33.4798 43.9765V22.0958H43.7678C46.2266 22.0958 48.3942 22.5543 50.2706 23.4712C52.147 24.3672 53.6137 25.628 54.6705 27.2534C55.7273 28.8788 56.2558 30.8064 56.2558 33.0362C56.2558 35.2451 55.7273 37.1727 54.6705 38.8189C53.6137 40.4443 52.147 41.7155 50.2706 42.6324C48.3942 43.5285 46.2266 43.9765 43.7678 43.9765H33.4798ZM38.7209 39.8192H43.509C45.0188 39.8192 46.3236 39.5483 47.4236 39.0065C48.5452 38.4438 49.4079 37.6519 50.0118 36.6308C50.6373 35.6097 50.95 34.4115 50.95 33.0362C50.95 31.64 50.6373 30.4417 50.0118 29.4415C49.4079 28.4204 48.5452 27.6389 47.4236 27.0971C46.3236 26.5345 45.0188 26.2531 43.509 26.2531H38.7209V39.8192Z" fill="#EAEAEA"/>
<defs>
<filter id="filter0_d_1296_3034" x="0" y="0" width="76" height="76" filterUnits="userSpaceOnUse" color-interpolation-filters="sRGB">
<feFlood flood-opacity="0" result="BackgroundImageFix"/>
<feColorMatrix in="SourceAlpha" type="matrix" values="0 0 0 0 0 0 0 0 0 0 0 0 0 0 0 0 0 0 127 0" result="hardAlpha"/>
<feOffset dx="4" dy="4"/>
<feGaussianBlur stdDeviation="2.5"/>
<feComposite in2="hardAlpha" operator="out"/>
<feColorMatrix type="matrix" values="0 0 0 0 0 0 0 0 0 0 0 0 0 0 0 0 0 0 0.25 0"/>
<feBlend mode="normal" in2="BackgroundImageFix" result="effect1_dropShadow_1296_3034"/>
<feBlend mode="normal" in="SourceGraphic" in2="effect1_dropShadow_1296_3034" result="shape"/>
</filter>
</defs>
</svg>
