<svg width="35" height="35" viewBox="0 0 35 35" fill="none" xmlns="http://www.w3.org/2000/svg">
<g clip-path="url(#clip0_1446_1333)">
<path d="M17.5 35.1215C14.0147 35.1215 10.6078 34.088 7.70996 32.1517C4.81211 30.2154 2.55352 27.4633 1.21979 24.2434C-0.113947 21.0235 -0.462912 17.4804 0.217019 14.0622C0.896949 10.6439 2.57524 7.50407 5.03965 5.03965C7.50407 2.57524 10.6439 0.896949 14.0622 0.217019C17.4804 -0.462912 21.0235 -0.113947 24.2434 1.21979C27.4633 2.55352 30.2154 4.81211 32.1517 7.70996C34.088 10.6078 35.1215 14.0147 35.1215 17.5C35.1163 22.1719 33.2581 26.651 29.9546 29.9546C26.651 33.2581 22.1719 35.1163 17.5 35.1215ZM17.5 1.82773C14.3991 1.82773 11.3679 2.7473 8.78973 4.47013C6.21154 6.19297 4.20217 8.64168 3.01575 11.5066C1.82933 14.3715 1.51916 17.5239 2.12446 20.5651C2.72976 23.6062 4.22334 26.3996 6.4163 28.5919C8.60927 30.7842 11.4031 32.2769 14.4445 32.8813C17.4859 33.4856 20.6382 33.1745 23.5027 31.9872C26.3672 30.7999 28.8153 28.7897 30.5373 26.211C32.2594 23.6323 33.178 20.6008 33.177 17.5C33.1732 13.3433 31.5202 9.35803 28.5811 6.41885C25.6419 3.47966 21.6566 1.82673 17.5 1.82287V1.82773Z" fill="#EAEAEA"/>
<path d="M25.4914 16.5277H11.856L16.474 11.9096C16.6565 11.7272 16.759 11.4798 16.759 11.2218C16.759 10.9638 16.6565 10.7164 16.474 10.5339C16.2916 10.3515 16.0442 10.249 15.7862 10.249C15.5282 10.249 15.2808 10.3515 15.0983 10.5339L8.81778 16.8096C8.77236 16.8557 8.73165 16.9062 8.69626 16.9603C8.69626 16.9603 8.67195 17.0089 8.65737 17.0332C8.63952 17.0631 8.62329 17.094 8.60876 17.1256C8.59729 17.1575 8.58755 17.1899 8.57959 17.2228C8.57959 17.252 8.57959 17.2763 8.55528 17.3055C8.5304 17.4306 8.5304 17.5595 8.55528 17.6846C8.55528 17.7138 8.55528 17.7381 8.57959 17.7673C8.58755 17.8002 8.59729 17.8326 8.60876 17.8645C8.62329 17.8961 8.63952 17.927 8.65737 17.9569C8.65737 17.9812 8.68167 18.0055 8.69626 18.0298C8.73165 18.0839 8.77236 18.1344 8.81778 18.1805L15.0935 24.4659C15.1838 24.5562 15.291 24.6279 15.4091 24.6768C15.5271 24.7256 15.6536 24.7508 15.7813 24.7508C15.9091 24.7508 16.0356 24.7256 16.1536 24.6768C16.2716 24.6279 16.3788 24.5562 16.4692 24.4659C16.5595 24.3756 16.6312 24.2683 16.68 24.1503C16.7289 24.0323 16.7541 23.9058 16.7541 23.778C16.7541 23.6503 16.7289 23.5238 16.68 23.4058C16.6312 23.2878 16.5595 23.1805 16.4692 23.0902L11.856 18.4721H25.4914C25.7492 18.4721 25.9965 18.3697 26.1789 18.1874C26.3612 18.005 26.4636 17.7578 26.4636 17.4999C26.4636 17.2421 26.3612 16.9948 26.1789 16.8124C25.9965 16.6301 25.7492 16.5277 25.4914 16.5277Z" fill="#EAEAEA"/>
</g>
<defs>
<clipPath id="clip0_1446_1333">
<rect width="35" height="35" fill="white"/>
</clipPath>
</defs>
</svg>
