<svg width="76" height="76" viewBox="0 0 76 76" fill="none" xmlns="http://www.w3.org/2000/svg">
<g filter="url(#filter0_d_1296_3055)">
<rect x="1" y="1" width="66" height="66" rx="15" fill="#7300BD"/>
</g>
<path d="M22.0876 30.3901V14.0464H29.4829C31.2503 14.0464 32.8085 14.3888 34.1573 15.0737C35.5061 15.743 36.5604 16.6847 37.3201 17.8988C38.0798 19.1129 38.4596 20.5527 38.4596 22.2182C38.4596 23.8682 38.0798 25.308 37.3201 26.5376C36.5604 27.7517 35.5061 28.7012 34.1573 29.3861C32.8085 30.0554 31.2503 30.3901 29.4829 30.3901H22.0876ZM25.855 27.2848H29.2969C30.3821 27.2848 31.3201 27.0824 32.1108 26.6777C32.917 26.2574 33.5371 25.666 33.9713 24.9033C34.4209 24.1405 34.6457 23.2455 34.6457 22.2182C34.6457 21.1753 34.4209 20.2803 33.9713 19.5332C33.5371 18.7705 32.917 18.1868 32.1108 17.7821C31.3201 17.3618 30.3821 17.1517 29.2969 17.1517H25.855V27.2848Z" fill="#EAEAEA"/>
<path d="M40.648 25.2768V22.3583H47.2294V25.2768H40.648Z" fill="#EAEAEA"/>
<path d="M9.50586 49.0685V32.7249H17.4593C19.5058 32.7249 21.0407 33.114 22.064 33.8923C23.1027 34.6705 23.6221 35.6979 23.6221 36.9742C23.6221 37.8303 23.4128 38.5775 22.9942 39.2156C22.5756 39.8383 22.0019 40.3208 21.2733 40.6632C20.5446 41.0057 19.7074 41.1769 18.7616 41.1769L19.2035 40.2196C20.2268 40.2196 21.1337 40.3908 21.9244 40.7333C22.7151 41.0601 23.3275 41.5504 23.7616 42.2042C24.2112 42.8579 24.436 43.6596 24.436 44.6091C24.436 46.0099 23.8857 47.1073 22.7849 47.9011C21.6841 48.6794 20.064 49.0685 17.9244 49.0685H9.50586ZM13.25 46.2201H17.6454C18.6221 46.2201 19.3585 46.0644 19.8547 45.7531C20.3663 45.4262 20.6221 44.9126 20.6221 44.2121C20.6221 43.5273 20.3663 43.0214 19.8547 42.6945C19.3585 42.3521 18.6221 42.1808 17.6454 42.1808H12.971V39.4258H16.9942C17.9089 39.4258 18.6066 39.2701 19.0872 38.9588C19.5833 38.6319 19.8314 38.1416 19.8314 37.4879C19.8314 36.8497 19.5833 36.375 19.0872 36.0636C18.6066 35.7368 17.9089 35.5733 16.9942 35.5733H13.25V46.2201Z" fill="#EAEAEA"/>
<path d="M35.1953 49.3487C33.9084 49.3487 32.7147 49.1386 31.6139 48.7183C30.5286 48.298 29.5829 47.7066 28.7767 46.9439C27.986 46.1812 27.3658 45.2861 26.9162 44.2588C26.4821 43.2315 26.2651 42.1108 26.2651 40.8967C26.2651 39.6826 26.4821 38.5619 26.9162 37.5346C27.3658 36.5073 27.9937 35.6122 28.7999 34.8495C29.6061 34.0868 30.5519 33.4954 31.6371 33.0751C32.7224 32.6548 33.9007 32.4447 35.172 32.4447C36.4588 32.4447 37.6371 32.6548 38.7069 33.0751C39.7921 33.4954 40.7301 34.0868 41.5208 34.8495C42.327 35.6122 42.9549 36.5073 43.4045 37.5346C43.8541 38.5463 44.079 39.667 44.079 40.8967C44.079 42.1108 43.8541 43.2393 43.4045 44.2822C42.9549 45.3095 42.327 46.2045 41.5208 46.9672C40.7301 47.7143 39.7921 48.298 38.7069 48.7183C37.6371 49.1386 36.4666 49.3487 35.1953 49.3487ZM35.172 46.1267C35.9007 46.1267 36.5674 46.0022 37.172 45.7531C37.7922 45.5041 38.3348 45.1461 38.7999 44.6791C39.265 44.2121 39.6216 43.6596 39.8697 43.0214C40.1332 42.3832 40.265 41.675 40.265 40.8967C40.265 40.1184 40.1332 39.4102 39.8697 38.772C39.6216 38.1338 39.265 37.5813 38.7999 37.1143C38.3503 36.6473 37.8154 36.2893 37.1953 36.0403C36.5751 35.7913 35.9007 35.6667 35.172 35.6667C34.4433 35.6667 33.7689 35.7913 33.1488 36.0403C32.5441 36.2893 32.0092 36.6473 31.5441 37.1143C31.079 37.5813 30.7147 38.1338 30.4511 38.772C30.203 39.4102 30.079 40.1184 30.079 40.8967C30.079 41.6594 30.203 42.3676 30.4511 43.0214C30.7147 43.6596 31.0713 44.2121 31.5209 44.6791C31.986 45.1461 32.5286 45.5041 33.1488 45.7531C33.7689 46.0022 34.4433 46.1267 35.172 46.1267Z" fill="#EAEAEA"/>
<path d="M44.4594 49.0685L51.4594 39.3791V42.1342L44.7617 32.7249H49.0408L53.6687 39.2857L51.878 39.309L56.4361 32.7249H60.5291L53.878 41.9707V39.2623L60.9245 49.0685H56.5756L51.785 42.1342H53.5059L48.785 49.0685H44.4594Z" fill="#EAEAEA"/>
<defs>
<filter id="filter0_d_1296_3055" x="0" y="0" width="76" height="76" filterUnits="userSpaceOnUse" color-interpolation-filters="sRGB">
<feFlood flood-opacity="0" result="BackgroundImageFix"/>
<feColorMatrix in="SourceAlpha" type="matrix" values="0 0 0 0 0 0 0 0 0 0 0 0 0 0 0 0 0 0 127 0" result="hardAlpha"/>
<feOffset dx="4" dy="4"/>
<feGaussianBlur stdDeviation="2.5"/>
<feComposite in2="hardAlpha" operator="out"/>
<feColorMatrix type="matrix" values="0 0 0 0 0 0 0 0 0 0 0 0 0 0 0 0 0 0 0.25 0"/>
<feBlend mode="normal" in2="BackgroundImageFix" result="effect1_dropShadow_1296_3055"/>
<feBlend mode="normal" in="SourceGraphic" in2="effect1_dropShadow_1296_3055" result="shape"/>
</filter>
</defs>
</svg>
