<svg width="118" height="17" viewBox="0 0 118 17" fill="none" xmlns="http://www.w3.org/2000/svg">
<g clip-path="url(#clip0_1204_1292)">
<path d="M17.4755 6.05567L12.0033 5.25265L9.57088 0.341235C9.52142 0.239101 9.44375 0.152872 9.34685 0.0924958C9.24994 0.0321197 9.13774 5.6904e-05 9.02319 6.44966e-06C8.9088 -0.000516543 8.79657 0.0307767 8.69932 0.0903114C8.60207 0.149846 8.52371 0.235222 8.47321 0.336685L6.00632 5.23218L0.52946 6.00335C0.415809 6.01785 0.308692 6.06407 0.220659 6.13659C0.132626 6.20911 0.0673228 6.30493 0.0324004 6.41283C-0.00415754 6.52033 -0.00929881 6.63584 0.0175672 6.7461C0.0444332 6.85635 0.102217 6.95688 0.18428 7.03614L4.14235 10.867L3.18044 16.2539C3.16039 16.3657 3.17247 16.4809 3.2153 16.5863C3.25814 16.6917 3.33001 16.7831 3.42276 16.8501C3.51551 16.9172 3.62542 16.9572 3.74001 16.9656C3.8546 16.974 3.96927 16.9504 4.07101 16.8976L8.97487 14.368L13.8649 16.9272C13.9662 16.98 14.0803 17.0038 14.1945 16.996C14.3087 16.9881 14.4184 16.9488 14.5113 16.8826C14.6041 16.8164 14.6764 16.7258 14.7199 16.6212C14.7635 16.5165 14.7766 16.4019 14.7578 16.2903L13.8373 10.8966L17.8138 7.09301C17.8962 7.0141 17.9547 6.91394 17.9825 6.80388C18.0103 6.69382 18.0064 6.57825 17.9712 6.47028C17.936 6.36231 17.8709 6.26624 17.7833 6.19296C17.6957 6.11969 17.5891 6.07213 17.4755 6.05567Z" fill="#F88312"/>
</g>
<g clip-path="url(#clip1_1204_1292)">
<path d="M42.4755 6.05567L37.0033 5.25265L34.5709 0.341235C34.5214 0.239101 34.4438 0.152872 34.3468 0.0924958C34.2499 0.0321197 34.1377 5.6904e-05 34.0232 6.44966e-06C33.9088 -0.000516543 33.7966 0.0307767 33.6993 0.0903114C33.6021 0.149846 33.5237 0.235222 33.4732 0.336685L31.0063 5.23218L25.5295 6.00335C25.4158 6.01785 25.3087 6.06407 25.2207 6.13659C25.1326 6.20911 25.0673 6.30493 25.0324 6.41283C24.9958 6.52033 24.9907 6.63584 25.0176 6.7461C25.0444 6.85635 25.1022 6.95688 25.1843 7.03614L29.1423 10.867L28.1804 16.2539C28.1604 16.3657 28.1725 16.4809 28.2153 16.5863C28.2581 16.6917 28.33 16.7831 28.4228 16.8501C28.5155 16.9172 28.6254 16.9572 28.74 16.9656C28.8546 16.974 28.9693 16.9504 29.071 16.8976L33.9749 14.368L38.8649 16.9272C38.9662 16.98 39.0803 17.0038 39.1945 16.996C39.3087 16.9881 39.4184 16.9488 39.5113 16.8826C39.6041 16.8164 39.6764 16.7258 39.7199 16.6212C39.7635 16.5165 39.7766 16.4019 39.7578 16.2903L38.8373 10.8966L42.8138 7.09301C42.8962 7.0141 42.9547 6.91394 42.9825 6.80388C43.0103 6.69382 43.0064 6.57825 42.9712 6.47028C42.936 6.36231 42.8709 6.26624 42.7833 6.19296C42.6957 6.11969 42.5891 6.07213 42.4755 6.05567Z" fill="#F88312"/>
</g>
<g clip-path="url(#clip2_1204_1292)">
<path d="M67.4755 6.05567L62.0033 5.25265L59.5709 0.341235C59.5214 0.239101 59.4438 0.152872 59.3468 0.0924958C59.2499 0.0321197 59.1377 5.6904e-05 59.0232 6.44966e-06C58.9088 -0.000516543 58.7966 0.0307767 58.6993 0.0903114C58.6021 0.149846 58.5237 0.235222 58.4732 0.336685L56.0063 5.23218L50.5295 6.00335C50.4158 6.01785 50.3087 6.06407 50.2207 6.13659C50.1326 6.20911 50.0673 6.30493 50.0324 6.41283C49.9958 6.52033 49.9907 6.63584 50.0176 6.7461C50.0444 6.85635 50.1022 6.95688 50.1843 7.03614L54.1423 10.867L53.1804 16.2539C53.1604 16.3657 53.1725 16.4809 53.2153 16.5863C53.2581 16.6917 53.33 16.7831 53.4228 16.8501C53.5155 16.9172 53.6254 16.9572 53.74 16.9656C53.8546 16.974 53.9693 16.9504 54.071 16.8976L58.9749 14.368L63.8649 16.9272C63.9662 16.98 64.0803 17.0038 64.1945 16.996C64.3087 16.9881 64.4184 16.9488 64.5113 16.8826C64.6041 16.8164 64.6764 16.7258 64.7199 16.6212C64.7635 16.5165 64.7766 16.4019 64.7578 16.2903L63.8373 10.8966L67.8138 7.09301C67.8962 7.0141 67.9547 6.91394 67.9825 6.80388C68.0103 6.69382 68.0064 6.57825 67.9712 6.47028C67.936 6.36231 67.8709 6.26624 67.7833 6.19296C67.6957 6.11969 67.5891 6.07213 67.4755 6.05567Z" fill="#F88312"/>
</g>
<g clip-path="url(#clip3_1204_1292)">
<path d="M92.4755 6.05567L87.0033 5.25265L84.5709 0.341235C84.5214 0.239101 84.4438 0.152872 84.3468 0.0924958C84.2499 0.0321197 84.1377 5.6904e-05 84.0232 6.44966e-06C83.9088 -0.000516543 83.7966 0.0307767 83.6993 0.0903114C83.6021 0.149846 83.5237 0.235222 83.4732 0.336685L81.0063 5.23218L75.5295 6.00335C75.4158 6.01785 75.3087 6.06407 75.2207 6.13659C75.1326 6.20911 75.0673 6.30493 75.0324 6.41283C74.9958 6.52033 74.9907 6.63584 75.0176 6.7461C75.0444 6.85635 75.1022 6.95688 75.1843 7.03614L79.1423 10.867L78.1804 16.2539C78.1604 16.3657 78.1725 16.4809 78.2153 16.5863C78.2581 16.6917 78.33 16.7831 78.4228 16.8501C78.5155 16.9172 78.6254 16.9572 78.74 16.9656C78.8546 16.974 78.9693 16.9504 79.071 16.8976L83.9749 14.368L88.8649 16.9272C88.9662 16.98 89.0803 17.0038 89.1945 16.996C89.3087 16.9881 89.4184 16.9488 89.5113 16.8826C89.6041 16.8164 89.6764 16.7258 89.7199 16.6212C89.7635 16.5165 89.7766 16.4019 89.7578 16.2903L88.8373 10.8966L92.8138 7.09301C92.8962 7.0141 92.9547 6.91394 92.9825 6.80388C93.0103 6.69382 93.0064 6.57825 92.9712 6.47028C92.936 6.36231 92.8709 6.26624 92.7833 6.19296C92.6957 6.11969 92.5891 6.07213 92.4755 6.05567Z" fill="#F88312"/>
</g>
<g clip-path="url(#clip4_1204_1292)">
<path d="M117.403 6.55038L117.404 6.55051C117.426 6.55373 117.446 6.56297 117.462 6.57649C117.479 6.58996 117.49 6.60702 117.496 6.6253C117.502 6.64354 117.502 6.66288 117.498 6.68135C117.493 6.69986 117.483 6.71745 117.468 6.73179L113.492 10.5352L113.3 10.7188L113.344 10.9807L114.265 16.3733C114.265 16.3734 114.265 16.3735 114.265 16.3736C114.268 16.3922 114.266 16.4113 114.258 16.429C114.251 16.4469 114.238 16.4632 114.221 16.4755C114.204 16.4879 114.183 16.4956 114.16 16.4972C114.138 16.4987 114.115 16.494 114.096 16.4839L109.207 13.925L108.977 13.8045L108.746 13.9236L103.842 16.4533L103.841 16.4538C103.821 16.4639 103.799 16.4686 103.777 16.4669C103.754 16.4653 103.733 16.4574 103.716 16.4449L103.423 16.8501L103.716 16.4449C103.698 16.4324 103.686 16.416 103.679 16.398C103.671 16.3801 103.669 16.3608 103.673 16.3421L103.673 16.3417L104.635 10.9549L104.681 10.6928L104.49 10.5077L100.532 6.67686L100.532 6.67648C100.517 6.66257 100.508 6.64556 100.503 6.62773C100.499 6.60993 100.5 6.59132 100.506 6.57381L100.506 6.57383L100.508 6.5668C100.513 6.55025 100.524 6.53473 100.539 6.52251C100.553 6.51024 100.572 6.50195 100.593 6.49933L100.593 6.49937L100.599 6.49847L106.076 5.72729L106.335 5.69081L106.453 5.45718L108.92 0.56169L108.921 0.559487C108.929 0.542614 108.943 0.527587 108.96 0.516754C108.978 0.505889 108.999 0.499902 109.021 0.500005L109.023 0.500006C109.044 0.500016 109.065 0.506051 109.082 0.516868L109.347 0.0924958L109.082 0.51687C109.1 0.527655 109.113 0.542538 109.121 0.559171L109.121 0.55918L109.123 0.563137L111.555 5.47455L111.671 5.70931L111.931 5.74735L117.403 6.55038Z" stroke="#F88312"/>
</g>
<defs>
<clipPath id="clip0_1204_1292">
<rect width="18" height="17" fill="white"/>
</clipPath>
<clipPath id="clip1_1204_1292">
<rect width="18" height="17" fill="white" transform="translate(25)"/>
</clipPath>
<clipPath id="clip2_1204_1292">
<rect width="18" height="17" fill="white" transform="translate(50)"/>
</clipPath>
<clipPath id="clip3_1204_1292">
<rect width="18" height="17" fill="white" transform="translate(75)"/>
</clipPath>
<clipPath id="clip4_1204_1292">
<rect width="18" height="17" fill="white" transform="translate(100)"/>
</clipPath>
</defs>
</svg>
