<svg width="33" height="33" viewBox="0 0 33 33" fill="none" xmlns="http://www.w3.org/2000/svg">
<path fill-rule="evenodd" clip-rule="evenodd" d="M25.0344 10.6913C25.0344 11.3115 24.5316 11.8143 23.9114 11.8143H9.0883C8.4681 11.8143 7.96533 11.3115 7.96533 10.6913V10.6913C7.96533 10.0711 8.4681 9.56836 9.0883 9.56836H23.9114C24.5316 9.56836 25.0344 10.0711 25.0344 10.6913V10.6913Z" fill="#EAEAEA"/>
<path fill-rule="evenodd" clip-rule="evenodd" d="M25.0344 16.9799C25.0344 17.6001 24.5316 18.1029 23.9114 18.1029H9.0883C8.4681 18.1029 7.96533 17.6001 7.96533 16.9799V16.9799C7.96533 16.3597 8.4681 15.8569 9.0883 15.8569H23.9114C24.5316 15.8569 25.0344 16.3597 25.0344 16.9799V16.9799Z" fill="#EAEAEA"/>
<path fill-rule="evenodd" clip-rule="evenodd" d="M25.0344 23.2694C25.0344 23.8896 24.5316 24.3924 23.9114 24.3924H9.0883C8.4681 24.3924 7.96533 23.8896 7.96533 23.2694V23.2694C7.96533 22.6493 8.4681 22.1465 9.0883 22.1465H23.9114C24.5316 22.1465 25.0344 22.6493 25.0344 23.2694V23.2694Z" fill="#EAEAEA"/>
<circle cx="16.5" cy="16.5" r="16" stroke="#EAEAEA"/>
</svg>
