<svg width="18" height="18" viewBox="0 0 18 18" fill="none" xmlns="http://www.w3.org/2000/svg">
<g clip-path="url(#clip0_1197_2522)">
<path d="M12.49 11.5775C13.6079 10.1197 14.1309 8.27523 13.9495 6.43109C13.768 4.58696 12.8962 2.88644 11.5168 1.68627C10.1375 0.486101 8.35783 -0.12044 6.55121 -0.00611217C4.7446 0.108216 3.05142 0.934529 1.82688 2.29948C0.602348 3.66443 -0.0583821 5.46194 -0.0166956 7.31492C0.024991 9.16789 0.765855 10.9323 2.05047 12.2381C3.33509 13.5439 5.06363 14.2895 6.87348 14.3185C8.68332 14.3475 10.4338 13.6577 11.7577 12.3938L17.0785 17.8394C17.1798 17.9425 17.3168 18.0003 17.4596 18.0003C17.6024 18.0003 17.7393 17.9425 17.8406 17.8394C17.8908 17.788 17.9307 17.727 17.9579 17.6598C17.9851 17.5926 17.9991 17.5206 17.9991 17.4479C17.9991 17.3751 17.9851 17.3031 17.9579 17.2359C17.9307 17.1688 17.8908 17.1077 17.8406 17.0563L12.49 11.5775ZM6.99357 13.2128C5.63849 13.2142 4.32403 12.7391 3.27 11.8671C2.21598 10.995 1.48631 9.77885 1.20302 8.42193C0.91973 7.06501 1.1 5.64963 1.71368 4.4125C2.32735 3.17537 3.33723 2.1915 4.57442 1.62542C5.81161 1.05934 7.2011 0.945387 8.5105 1.30261C9.81991 1.65983 10.9698 2.46658 11.768 3.58792C12.5661 4.70926 12.9641 6.07722 12.8953 7.46301C12.8266 8.8488 12.2952 10.1684 11.3902 11.2011L11.374 11.215C11.3605 11.215 11.3497 11.2454 11.3362 11.262C10.7836 11.8773 10.1123 12.3683 9.36483 12.7041C8.61732 13.0399 7.80986 13.2132 6.99357 13.2128Z" fill="#EAEAEA"/>
</g>
<defs>
<clipPath id="clip0_1197_2522">
<rect width="18" height="18" fill="white"/>
</clipPath>
</defs>
</svg>
