<svg width="37" height="37" viewBox="0 0 37 37" fill="none" xmlns="http://www.w3.org/2000/svg">
<g clip-path="url(#clip0_1197_1425)">
<path d="M11.4174 31H25.5826C26.4887 30.9991 27.3574 30.6531 27.998 30.0381C28.6387 29.423 28.9991 28.589 29 27.7191C28.9965 25.6786 28.3484 23.6871 27.1414 22.0075C25.9345 20.3279 24.2253 19.0392 22.2396 18.3116C23.5083 17.5339 24.4801 16.3822 25.0093 15.0293C25.5384 13.6764 25.5963 12.1952 25.1744 10.808C24.7524 9.42081 23.8733 8.20237 22.669 7.33548C21.4646 6.46859 19.9999 6 18.4947 6C16.9894 6 15.5248 6.46859 14.3204 7.33548C13.1161 8.20237 12.237 9.42081 11.815 10.808C11.3931 12.1952 11.451 13.6764 11.9801 15.0293C12.5093 16.3822 13.4811 17.5339 14.7497 18.3116C12.766 19.0409 11.0592 20.3302 9.85418 22.0097C8.64921 23.6891 8.00273 25.6798 8 27.7191C8.00094 28.589 8.36128 29.423 9.00196 30.0381C9.64264 30.6531 10.5113 30.9991 11.4174 31ZM13.3368 12.6916C13.3368 11.7117 13.6395 10.7538 14.2066 9.93914C14.7737 9.12444 15.5797 8.48952 16.5227 8.11469C17.4658 7.73986 18.5034 7.64196 19.5044 7.83338C20.5053 8.02479 21.4247 8.49692 22.1462 9.19004C22.8676 9.88315 23.3588 10.7661 23.5574 11.7273C23.7561 12.6884 23.6534 13.6845 23.2624 14.5896C22.8713 15.4947 22.2094 16.2681 21.3605 16.812C20.5115 17.3559 19.5136 17.6459 18.4929 17.6452C17.1254 17.6434 15.8144 17.1208 14.8478 16.1921C13.8811 15.2634 13.3377 14.0045 13.3368 12.6916ZM18.4929 19.369C20.7994 19.3708 23.0109 20.251 24.6421 21.8165C26.2734 23.3819 27.1911 25.5048 27.1939 27.7191C27.193 28.1318 27.0218 28.5274 26.7178 28.8192C26.4139 29.111 26.0019 29.2754 25.572 29.2763H11.4067C10.9769 29.2754 10.5649 29.111 10.2609 28.8192C9.95694 28.5274 9.78576 28.1318 9.78482 27.7191C9.78764 25.5036 10.7063 23.3797 12.3391 21.8141C13.9719 20.2484 16.1852 19.369 18.4929 19.369Z" fill="#EAEAEA"/>
</g>
<circle cx="18.5" cy="18.5" r="17.5" stroke="#EAEAEA" stroke-width="2"/>
<defs>
<clipPath id="clip0_1197_1425">
<rect width="21" height="25" fill="white" transform="translate(8 6)"/>
</clipPath>
</defs>
</svg>
