<svg width="45" height="29" viewBox="0 0 45 29" fill="none" xmlns="http://www.w3.org/2000/svg">
<path d="M2.34904 12.7902C2.89597 12.7902 3.44128 12.7799 3.98659 12.7902C4.49964 12.8039 4.70938 13.0185 4.72067 13.5573C4.73519 14.3262 4.7368 15.1018 4.72067 15.8638C4.71099 16.4061 4.49803 16.6464 4.00273 16.6532C2.9121 16.6692 1.8204 16.6692 0.727622 16.6532C0.242003 16.6464 0.0129068 16.3821 0 15.8621C0 15.1018 0 14.3502 0 13.5951C0 13.0305 0.237163 12.7971 0.782476 12.7902C1.30198 12.7902 1.82309 12.7902 2.34259 12.7902H2.34904Z" fill="#EAEAEA"/>
<path d="M2.40899 18.9683C2.9172 18.9683 3.4254 18.9683 3.932 18.9683C4.52732 18.9683 4.73867 19.1948 4.74674 19.8264C4.74674 20.554 4.74674 21.2833 4.74674 22.0127C4.74674 22.5722 4.53862 22.8193 4.01428 22.8279C2.93871 22.8462 1.85938 22.8462 0.776279 22.8279C0.250326 22.8244 0.0325236 22.5481 0.0292969 21.9664C0.0292969 21.2513 0.0292969 20.5357 0.0292969 19.8195C0.0292969 19.2154 0.269686 18.9614 0.84888 18.9614C1.36999 18.9649 1.88949 18.9683 2.40899 18.9683Z" fill="#EAEAEA"/>
<path d="M2.34903 25.136C2.91371 25.136 3.47838 25.1223 4.04144 25.136C4.22496 25.1434 4.39879 25.2256 4.52699 25.3655C4.6552 25.5054 4.72799 25.6923 4.73034 25.8876C4.74163 26.6633 4.74325 27.4322 4.73034 28.213C4.72066 28.7553 4.53996 28.9681 4.04144 28.9784C2.93575 29.0013 1.83061 29.0059 0.726 28.9921C0.241994 28.9921 0.0258047 28.7296 0.0193513 28.2302C0.00805784 27.4596 0.00967119 26.6856 0.0193513 25.9185C0.0214003 25.7136 0.0982988 25.5175 0.233786 25.3718C0.369274 25.2261 0.552729 25.1421 0.74536 25.1377C1.27938 25.1274 1.81663 25.1377 2.35871 25.1377L2.34903 25.136Z" fill="#EAEAEA"/>
<path d="M2.36392 4.29042C1.81861 4.29042 1.2733 4.299 0.726371 4.29042C0.281086 4.27669 0.0406961 4.02956 0.0326293 3.55763C0.0197225 2.75677 0.0197225 1.95934 0.0326293 1.16535C0.0423094 0.710573 0.268179 0.460018 0.703784 0.453154C1.83313 0.435993 2.96248 0.437709 4.09182 0.453154C4.50162 0.453154 4.7291 0.703708 4.73717 1.1396C4.7533 1.96335 4.7533 2.78709 4.73717 3.61083C4.72749 4.03986 4.48548 4.27497 4.07408 4.28527C3.50779 4.30071 2.93505 4.29042 2.36392 4.29042Z" fill="#EAEAEA"/>
<path d="M2.41985 6.6193C2.95387 6.6193 3.48789 6.6193 4.02191 6.6193C4.50592 6.6193 4.73178 6.85784 4.73985 7.35895C4.75168 8.14265 4.75168 8.92635 4.73985 9.71004C4.73985 10.2249 4.52528 10.46 4.03482 10.4669C2.94311 10.4829 1.85087 10.4829 0.758097 10.4669C0.246664 10.4686 0.0353149 10.2094 0.0304748 9.64998C0.0240214 8.90747 0.0240214 8.16381 0.0304748 7.41901C0.0304748 6.875 0.269251 6.6296 0.783911 6.62102C1.32922 6.61243 1.87615 6.6193 2.41985 6.6193Z" fill="#EAEAEA"/>
<path d="M41.6473 28.9906C41.1149 28.9906 40.5809 28.9906 40.0485 28.9906C39.5483 28.9906 39.3305 28.752 39.3257 28.2183C39.3257 27.4632 39.3257 26.7064 39.3257 25.9513C39.3257 25.3987 39.5516 25.1413 40.0598 25.1361C41.1353 25.1258 42.2141 25.1258 43.2961 25.1361C43.7947 25.1361 43.9963 25.3524 44.0076 25.8758C44.0238 26.6767 44.0238 27.4729 44.0076 28.2646C43.998 28.7795 43.8011 28.97 43.322 28.982C42.7637 29.0026 42.2055 28.9888 41.6473 28.9906Z" fill="#EAEAEA"/>
<path d="M41.7152 16.6562C41.1957 16.6562 40.6746 16.6734 40.1535 16.6562C39.5743 16.6322 39.3872 16.4125 39.3823 15.7981C39.3823 15.0705 39.3823 14.3417 39.3823 13.6118C39.3823 13.0335 39.6066 12.7966 40.1454 12.7949C41.1984 12.7949 42.2525 12.7949 43.3076 12.7949C43.8578 12.7949 44.0643 13.0146 44.0691 13.6032C44.0772 14.3463 44.0691 15.0894 44.0691 15.8342C44.0667 16.0507 43.9855 16.2578 43.8426 16.412C43.6997 16.5662 43.5063 16.6556 43.3028 16.6614C42.7736 16.6768 42.2444 16.6614 41.7152 16.6614V16.6562Z" fill="#EAEAEA"/>
<path d="M41.6567 18.9819C42.2037 18.9819 42.7506 18.9631 43.2943 18.9819C43.838 19.0008 44.0042 19.1913 44.0122 19.7525C44.0219 20.5236 44.0219 21.2936 44.0122 22.0624C44.0122 22.5532 43.809 22.7986 43.3395 22.8089C42.223 22.8329 41.106 22.8329 39.9885 22.8089C39.5336 22.7986 39.3303 22.5326 39.3271 22.0469C39.3271 21.2764 39.3174 20.5024 39.3271 19.7387C39.3351 19.205 39.511 19.0042 40.0208 18.9819C40.5645 18.9631 41.1114 18.9802 41.6567 18.9819Z" fill="#EAEAEA"/>
<path d="M41.6763 6.61925C42.2104 6.61925 42.7444 6.61925 43.2784 6.61925C43.7818 6.61925 43.9963 6.82175 44.0076 7.33831C44.0254 8.15004 44.0221 8.96177 44.0076 9.77349C43.9979 10.2437 43.806 10.4479 43.3623 10.4599C42.2319 10.4748 41.1025 10.4748 39.9743 10.4599C39.5645 10.4599 39.3418 10.2111 39.3289 9.77349C39.3176 8.96348 39.316 8.15175 39.3289 7.34003C39.3289 6.88354 39.5677 6.63985 39.9968 6.63126C40.5567 6.61067 41.1165 6.62097 41.6763 6.61925Z" fill="#EAEAEA"/>
<path d="M41.689 4.29056C41.1437 4.29056 40.5968 4.29056 40.0515 4.29056C39.5465 4.29056 39.3319 4.05717 39.3271 3.52345C39.3271 2.75463 39.3174 1.97894 39.3271 1.21526C39.3271 0.684978 39.5529 0.449868 40.0563 0.446436C41.1319 0.438428 42.2112 0.438428 43.2943 0.446436C43.8057 0.446436 44.0058 0.671249 44.0122 1.21698C44.0198 1.98809 44.0198 2.75806 44.0122 3.52689C44.0122 4.07261 43.8057 4.28198 43.2895 4.29056C42.7732 4.29914 42.223 4.29056 41.689 4.29056Z" fill="#EAEAEA"/>
<path d="M37.5098 0V28.867H30.895V11.5547L24.8304 28.867H19.4951L13.3901 11.5135V28.867H6.77539V0H14.584L22.199 19.9843L29.7399 0H37.5098Z" fill="#EAEAEA"/>
</svg>
