<svg xmlns="http://www.w3.org/2000/svg" viewBox="0 0 386.99 52.15"><defs><style>.cls-1{fill:#ededed;}</style></defs><g id="Capa_2" data-name="Capa 2"><g id="Capa_1-2" data-name="Capa 1"><path class="cls-1" d="M51.25,6.38V51.64h-11V24.5L30.11,51.64h-8.9L11,24.43V51.64H0V6.38H13l12.7,31.33L38.29,6.38Z"/><path class="cls-1" d="M94.57,15.67v36h-11v-4.9A12.08,12.08,0,0,1,79,50.58,14,14,0,0,1,72.65,52a14.3,14.3,0,0,1-7.29-1.84,12.52,12.52,0,0,1-4.9-5.32,18.11,18.11,0,0,1-1.74-8.19v-21h11V35.2a7.92,7.92,0,0,0,1.87,5.61,7.4,7.4,0,0,0,10.12,0,7.87,7.87,0,0,0,1.87-5.61V15.67Z"/><path class="cls-1" d="M112.82,3.93V51.64h-11V3.93Z"/><path class="cls-1" d="M140.39,42.29v9.35h-5.61q-6,0-9.35-2.93t-3.35-9.58V24.82h-4.39V15.67h4.39V6.9h11v8.77h7.22v9.15H133.1V39.26a3,3,0,0,0,.77,2.32,3.76,3.76,0,0,0,2.58.71Z"/><path class="cls-1" d="M146.88,10.22A5.55,5.55,0,0,1,145.05,6a5.62,5.62,0,0,1,1.83-4.29A6.7,6.7,0,0,1,151.62,0a6.62,6.62,0,0,1,4.68,1.71A5.62,5.62,0,0,1,158.13,6a5.55,5.55,0,0,1-1.83,4.22,6.62,6.62,0,0,1-4.68,1.71A6.7,6.7,0,0,1,146.88,10.22Zm10.22,5.45v36h-11v-36Z"/><path class="cls-1" d="M164.32,23.85a15.52,15.52,0,0,1,5.7-6.44,14.85,14.85,0,0,1,8.06-2.26,13.86,13.86,0,0,1,6.67,1.55,11.37,11.37,0,0,1,4.42,4.06V15.67h11v36h-11V46.55a12,12,0,0,1-4.48,4.06A13.88,13.88,0,0,1,178,52.15a14.68,14.68,0,0,1-8-2.28,15.79,15.79,0,0,1-5.7-6.51,21.71,21.71,0,0,1-2.1-9.77A21.49,21.49,0,0,1,164.32,23.85Zm22.56,3.29a7.75,7.75,0,0,0-11.15,0,8.89,8.89,0,0,0-2.29,6.48,9.1,9.1,0,0,0,2.29,6.54,7.66,7.66,0,0,0,11.15,0,9,9,0,0,0,2.29-6.51A9,9,0,0,0,186.88,27.14Z"/><path class="cls-1" d="M207.72,23.85a15.89,15.89,0,0,1,6.38-6.44,19.06,19.06,0,0,1,9.38-2.26A17.8,17.8,0,0,1,234.8,18.7a16.68,16.68,0,0,1,6,10H229a5.65,5.65,0,0,0-5.74-4.13,5.77,5.77,0,0,0-4.83,2.36c-1.21,1.56-1.81,3.81-1.81,6.73s.6,5.17,1.81,6.74a5.76,5.76,0,0,0,4.83,2.35A5.64,5.64,0,0,0,229,38.62h11.73a16.83,16.83,0,0,1-6,9.92,17.67,17.67,0,0,1-11.29,3.61,19.17,19.17,0,0,1-9.38-2.25,15.92,15.92,0,0,1-6.38-6.45,20.07,20.07,0,0,1-2.29-9.8A20.1,20.1,0,0,1,207.72,23.85Z"/><path class="cls-1" d="M246,23.85a15.83,15.83,0,0,1,6.38-6.44,19.06,19.06,0,0,1,9.38-2.26,17.79,17.79,0,0,1,11.31,3.55,16.73,16.73,0,0,1,6,10H267.31a5.64,5.64,0,0,0-5.73-4.13,5.79,5.79,0,0,0-4.84,2.36c-1.2,1.56-1.8,3.81-1.8,6.73s.6,5.17,1.8,6.74a5.78,5.78,0,0,0,4.84,2.35,5.63,5.63,0,0,0,5.73-4.12h11.74a16.89,16.89,0,0,1-6,9.92,17.63,17.63,0,0,1-11.28,3.61,19.17,19.17,0,0,1-9.38-2.25A15.85,15.85,0,0,1,246,43.45a20.07,20.07,0,0,1-2.29-9.8A20.1,20.1,0,0,1,246,23.85Z"/><path class="cls-1" d="M317.92,36.3H293a7.47,7.47,0,0,0,2.16,5.12,6.58,6.58,0,0,0,4.67,1.77,5.8,5.8,0,0,0,5.74-3.48h11.73a16.18,16.18,0,0,1-9.15,10.83,18.89,18.89,0,0,1-7.93,1.61,19.35,19.35,0,0,1-9.42-2.25,16,16,0,0,1-6.44-6.45,19.86,19.86,0,0,1-2.32-9.8,20.1,20.1,0,0,1,2.29-9.8,15.78,15.78,0,0,1,6.41-6.44,20.89,20.89,0,0,1,18.76-.07,15.74,15.74,0,0,1,6.35,6.26,18.89,18.89,0,0,1,2.29,9.47A30.48,30.48,0,0,1,317.92,36.3Zm-11.09-6.13a5.67,5.67,0,0,0-1.94-4.51A7.1,7.1,0,0,0,300.06,24a7,7,0,0,0-4.68,1.61A7.2,7.2,0,0,0,293,30.17Z"/><path class="cls-1" d="M329.09,50.54a14.26,14.26,0,0,1-5.8-4.41,11.6,11.6,0,0,1-2.38-6.29H331.8a4.18,4.18,0,0,0,1.74,3A6.12,6.12,0,0,0,337.35,44a5.51,5.51,0,0,0,3.19-.8,2.49,2.49,0,0,0,1.13-2.1,2.43,2.43,0,0,0-1.62-2.29,32.61,32.61,0,0,0-5.22-1.64,49.12,49.12,0,0,1-6.44-1.9,11.13,11.13,0,0,1-4.45-3.16,8.61,8.61,0,0,1-1.87-5.84,9.91,9.91,0,0,1,1.71-5.64,11.44,11.44,0,0,1,5-4,19.27,19.27,0,0,1,7.9-1.48q6.76,0,10.67,3.35a13.07,13.07,0,0,1,4.48,8.9H341.67a4.45,4.45,0,0,0-1.65-3,5.7,5.7,0,0,0-3.64-1.09,5,5,0,0,0-3,.74,2.38,2.38,0,0,0-1,2A2.48,2.48,0,0,0,334,28.43,26.11,26.11,0,0,0,339.15,30a55.07,55.07,0,0,1,6.51,2,11.19,11.19,0,0,1,4.42,3.22,9.15,9.15,0,0,1,2,6,9.51,9.51,0,0,1-1.78,5.64,11.79,11.79,0,0,1-5.09,3.9,19.59,19.59,0,0,1-7.7,1.41A20.62,20.62,0,0,1,329.09,50.54Z"/><path class="cls-1" d="M364,50.54a14.26,14.26,0,0,1-5.8-4.41,11.6,11.6,0,0,1-2.38-6.29h10.89a4.18,4.18,0,0,0,1.74,3,6.11,6.11,0,0,0,3.8,1.16,5.52,5.52,0,0,0,3.2-.8,2.48,2.48,0,0,0,1.12-2.1A2.42,2.42,0,0,0,375,38.84a32.61,32.61,0,0,0-5.22-1.64,49.79,49.79,0,0,1-6.45-1.9,11.1,11.1,0,0,1-4.44-3.16A8.61,8.61,0,0,1,357,26.3a9.9,9.9,0,0,1,1.7-5.64,11.53,11.53,0,0,1,5-4,19.27,19.27,0,0,1,7.9-1.48q6.77,0,10.67,3.35a13.07,13.07,0,0,1,4.48,8.9H376.61a4.39,4.39,0,0,0-1.64-3,5.7,5.7,0,0,0-3.64-1.09,5,5,0,0,0-3,.74,2.35,2.35,0,0,0-1,2A2.49,2.49,0,0,0,369,28.43,26.48,26.48,0,0,0,374.1,30a56.29,56.29,0,0,1,6.51,2A11.19,11.19,0,0,1,385,35.23a9.14,9.14,0,0,1,2,6,9.5,9.5,0,0,1-1.77,5.64,11.79,11.79,0,0,1-5.09,3.9,19.61,19.61,0,0,1-7.71,1.41A20.61,20.61,0,0,1,364,50.54Z"/></g></g></svg>