<svg width="98" height="77" viewBox="0 0 98 77" fill="none" xmlns="http://www.w3.org/2000/svg">
<path d="M5.17567 25.0929C6.38072 25.0929 7.58221 25.0728 8.78371 25.0929C9.91411 25.1198 10.3762 25.5391 10.4011 26.5925C10.4331 28.0954 10.4366 29.6117 10.4011 31.1011C10.3798 32.1612 9.91055 32.6309 8.81925 32.6443C6.41626 32.6756 4.01091 32.6756 1.60318 32.6443C0.533208 32.6309 0.0284377 32.1143 0 31.0978C0 29.6117 0 28.1423 0 26.6663C0 25.5626 0.522543 25.1063 1.72404 25.0929C2.86866 25.0929 4.01683 25.0929 5.16145 25.0929H5.17567Z" fill="#EAEAEA"/>
<path d="M5.30742 37.1702C6.42715 37.1702 7.54689 37.1702 8.66307 37.1702C9.97476 37.1702 10.4404 37.613 10.4582 38.8475C10.4582 40.2699 10.4582 41.6956 10.4582 43.1213C10.4582 44.215 9.99964 44.698 8.84436 44.7148C6.47455 44.7506 4.09644 44.7506 1.71004 44.7148C0.551205 44.7081 0.0713184 44.168 0.064209 43.0308C0.064209 41.633 0.064209 40.2341 0.064209 38.8341C0.064209 37.6532 0.593862 37.1567 1.87001 37.1567C3.01818 37.1634 4.1628 37.1702 5.30742 37.1702Z" fill="#EAEAEA"/>
<path d="M5.17551 49.2268C6.41966 49.2268 7.66381 49.1999 8.90441 49.2268C9.30877 49.2414 9.69176 49.402 9.97423 49.6754C10.2567 49.9489 10.4171 50.3143 10.4223 50.6961C10.4472 52.2124 10.4507 53.7153 10.4223 55.2417C10.4009 56.3018 10.0028 56.7177 8.90441 56.7379C6.46824 56.7826 4.03326 56.7915 1.59947 56.7647C0.533052 56.7647 0.0567202 56.2514 0.0425013 55.2752C0.0176183 53.769 0.021173 52.256 0.0425013 50.7565C0.0470159 50.3559 0.216447 49.9726 0.514969 49.6878C0.81349 49.4029 1.2177 49.2388 1.64212 49.2301C2.81874 49.21 4.00246 49.2301 5.19684 49.2301L5.17551 49.2268Z" fill="#EAEAEA"/>
<path d="M5.20819 8.47759C4.00669 8.47759 2.8052 8.49437 1.60015 8.47759C0.619048 8.45076 0.0893949 7.96768 0.0716213 7.04515C0.0431835 5.47964 0.0431835 3.92084 0.0716213 2.36874C0.0929496 1.47976 0.59061 0.989974 1.55038 0.976555C4.03869 0.943009 6.52699 0.946363 9.01529 0.976555C9.91819 0.976555 10.4194 1.46634 10.4372 2.31842C10.4727 3.92866 10.4727 5.5389 10.4372 7.14915C10.4158 7.98781 9.88264 8.4474 8.97619 8.46753C7.72848 8.49772 6.46656 8.47759 5.20819 8.47759Z" fill="#EAEAEA"/>
<path d="M5.33184 13.03C6.50845 13.03 7.68506 13.03 8.86168 13.03C9.92809 13.03 10.4258 13.4963 10.4435 14.4758C10.4696 16.0078 10.4696 17.5398 10.4435 19.0717C10.4435 20.0781 9.97075 20.5377 8.89011 20.5511C6.48475 20.5825 4.07821 20.5825 1.67048 20.5511C0.543637 20.5545 0.0779689 20.0479 0.0673048 18.9543C0.0530859 17.5029 0.0530859 16.0492 0.0673048 14.5933C0.0673048 13.5298 0.593403 13.0501 1.72736 13.0333C2.92885 13.0166 4.1339 13.03 5.33184 13.03Z" fill="#EAEAEA"/>
<path d="M91.7617 56.7611C90.5887 56.7611 89.4121 56.7611 88.239 56.7611C87.137 56.7611 86.6571 56.2948 86.6465 55.2515C86.6465 53.7754 86.6465 52.296 86.6465 50.82C86.6465 49.7398 87.1441 49.2366 88.2639 49.2265C90.6337 49.2064 93.0106 49.2064 95.3946 49.2265C96.493 49.2265 96.9374 49.6492 96.9623 50.6724C96.9978 52.2379 96.9978 53.7945 96.9623 55.3421C96.9409 56.3485 96.5073 56.7209 95.4515 56.7443C94.2216 56.7846 92.9917 56.7577 91.7617 56.7611Z" fill="#EAEAEA"/>
<path d="M91.9106 32.651C90.766 32.651 89.6178 32.6846 88.4697 32.651C87.1935 32.6041 86.7812 32.1747 86.7705 30.9737C86.7705 29.5513 86.7705 28.1267 86.7705 26.6999C86.7705 25.5693 87.2646 25.1064 88.4519 25.103C90.7719 25.103 93.0943 25.103 95.4191 25.103C96.6313 25.103 97.0863 25.5324 97.097 26.6831C97.1147 28.1356 97.097 29.5882 97.097 31.0441C97.0916 31.4674 96.9128 31.8722 96.5979 32.1737C96.2831 32.4752 95.8568 32.6498 95.4085 32.6611C94.2425 32.6913 93.0766 32.6611 91.9106 32.6611V32.651Z" fill="#EAEAEA"/>
<path d="M91.7829 37.1969C92.9879 37.1969 94.193 37.16 95.3909 37.1969C96.5889 37.2338 96.955 37.6061 96.9728 38.7031C96.9941 40.2105 96.9941 41.7156 96.9728 43.2185C96.9728 44.1779 96.5249 44.6576 95.4904 44.6778C93.0306 44.7247 90.5695 44.7247 88.1073 44.6778C87.1049 44.6576 86.657 44.1377 86.6499 43.1883C86.6499 41.6821 86.6285 40.1691 86.6499 38.6763C86.6676 37.633 87.0551 37.2405 88.1784 37.1969C89.3763 37.16 90.5814 37.1935 91.7829 37.1969Z" fill="#EAEAEA"/>
<path d="M91.8254 13.03C93.002 13.03 94.1787 13.03 95.3553 13.03C96.4643 13.03 96.9371 13.4258 96.962 14.4356C97.0011 16.0223 96.994 17.6091 96.962 19.1958C96.9407 20.115 96.5177 20.5142 95.5401 20.5377C93.0494 20.5668 90.5611 20.5668 88.0752 20.5377C87.1723 20.5377 86.6818 20.0513 86.6533 19.1958C86.6284 17.6124 86.6249 16.0257 86.6533 14.4389C86.6533 13.5466 87.1794 13.0702 88.125 13.0534C89.3585 13.0132 90.5919 13.0333 91.8254 13.03Z" fill="#EAEAEA"/>
<path d="M91.854 8.47737C90.6525 8.47737 89.4474 8.47737 88.2459 8.47737C87.1333 8.47737 86.6605 8.02114 86.6499 6.97783C86.6499 5.47494 86.6285 3.95863 86.6499 2.4658C86.6499 1.42921 87.1475 0.969623 88.2566 0.962913C90.6264 0.947258 93.0045 0.947258 95.3909 0.962913C96.5178 0.962913 96.9585 1.40237 96.9728 2.46916C96.9893 3.97652 96.9893 5.48165 96.9728 6.98454C96.9728 8.05133 96.5178 8.4606 95.3802 8.47737C94.2427 8.49414 93.0306 8.47737 91.854 8.47737Z" fill="#EAEAEA"/>
<path d="M82.6468 0.0908203V56.5197H68.0725V22.6778L54.7103 56.5197H42.9548L29.5038 22.5973V56.5197H14.9294V0.0908203H32.1343L48.9125 39.1559L65.5273 0.0908203H82.6468Z" fill="#EAEAEA"/>
<path d="M12.853 66.0151V76.7742H10.0943V70.3225L7.55128 76.7742H5.31925L2.75869 70.3059V76.7742H0V66.0151H3.26027L6.4453 73.4628L9.60275 66.0151H12.853Z" fill="#EDEDED"/>
<path d="M23.7175 68.224V76.7818H20.9588V75.617C20.6624 76.0047 20.2684 76.316 19.8127 76.5227C19.3172 76.7522 18.7716 76.8678 18.2201 76.8602C17.5805 76.8716 16.9492 76.7206 16.3919 76.4228C15.8599 76.125 15.4325 75.6851 15.163 75.1582C14.8591 74.5504 14.7097 73.8836 14.7266 73.2113V68.2192H17.4853V72.8666C17.4541 73.3518 17.6222 73.8297 17.9543 74.2002C18.2982 74.5057 18.7519 74.6757 19.2233 74.6757C19.6947 74.6757 20.1484 74.5057 20.4923 74.2002C20.8256 73.8303 20.9938 73.352 20.9613 72.8666V68.224H23.7175Z" fill="#EDEDED"/>
<path d="M28.2946 65.4331V76.7745H25.5359V65.4331H28.2946Z" fill="#EDEDED"/>
<path d="M35.2081 74.5519V76.7746H33.8011C32.798 76.7746 32.0163 76.5424 31.4562 76.0781C30.8962 75.6137 30.6161 74.8546 30.6161 73.8007V70.399H29.5151V68.2239H30.6161V66.1392H33.3748V68.2239H35.1855V70.399H33.3798V73.8316C33.3694 73.9313 33.3811 74.0319 33.4144 74.1269C33.4477 74.2219 33.5017 74.3092 33.5729 74.3831C33.7595 74.5127 33.9897 74.5728 34.22 74.5519H35.2081Z" fill="#EDEDED"/>
<path d="M36.8363 66.9282C36.6886 66.8018 36.5712 66.6469 36.4921 66.4739C36.4129 66.3008 36.3738 66.1137 36.3774 65.9251C36.3724 65.7339 36.4108 65.5439 36.49 65.3679C36.5692 65.192 36.6873 65.0342 36.8363 64.9053C37.1617 64.6283 37.5881 64.4825 38.0251 64.4988C38.4572 64.4842 38.8783 64.6301 39.1988 64.9053C39.3478 65.0342 39.4659 65.192 39.5451 65.3679C39.6243 65.5439 39.6627 65.7339 39.6577 65.9251C39.6613 66.1137 39.6222 66.3008 39.543 66.4739C39.4639 66.6469 39.3465 66.8018 39.1988 66.9282C38.8783 67.2035 38.4572 67.3493 38.0251 67.3347C37.5881 67.351 37.1617 67.2052 36.8363 66.9282ZM39.3994 68.2238V76.7816H36.6407V68.2238H39.3994Z" fill="#EDEDED"/>
<path d="M41.2096 70.168C41.5244 69.5402 42.02 69.0096 42.6391 68.6371C43.2446 68.278 43.9462 68.0915 44.6604 68.0999C45.2418 68.0881 45.8169 68.2148 46.3332 68.4683C46.7872 68.6901 47.1701 69.0234 47.4417 69.4335V68.2235H50.2004V76.7812H47.4417V75.5641C47.1602 75.9715 46.7734 76.3037 46.3182 76.5293C45.8001 76.7825 45.2232 76.9084 44.6404 76.8954C43.9305 76.9018 43.2337 76.7136 42.6341 76.3534C42.0148 75.9737 41.5197 75.4378 41.2046 74.8058C40.8409 74.081 40.6605 73.2858 40.6779 72.4833C40.6612 71.6827 40.8434 70.8896 41.2096 70.168ZM46.8674 70.9501C46.6861 70.7721 46.4689 70.6306 46.2287 70.534C45.9885 70.4373 45.7302 70.3875 45.4692 70.3875C45.2083 70.3875 44.95 70.4373 44.7098 70.534C44.4696 70.6306 44.2524 70.7721 44.0711 70.9501C43.8723 71.1579 43.7191 71.4011 43.6205 71.6655C43.5219 71.93 43.4799 72.2104 43.4968 72.4905C43.4644 73.0602 43.6708 73.619 44.0711 74.0451C44.2507 74.2258 44.4674 74.3698 44.7078 74.4682C44.9482 74.5665 45.2074 74.6173 45.4692 74.6173C45.7311 74.6173 45.9903 74.5665 46.2307 74.4682C46.4711 74.3698 46.6878 74.2258 46.8674 74.0451C47.0658 73.8357 47.2187 73.5912 47.3173 73.3256C47.4158 73.0601 47.4581 72.7787 47.4417 72.4976C47.4581 72.2165 47.4158 71.9352 47.3173 71.6696C47.2187 71.404 47.0658 71.1595 46.8674 70.9501Z" fill="#EDEDED"/>
<path d="M52.0941 70.1685C52.4593 69.5218 53.0153 68.9898 53.6941 68.6376C54.4167 68.2703 55.2268 68.0853 56.0465 68.1004C57.0668 68.0657 58.0688 68.3635 58.8855 68.9443C59.6725 69.5392 60.2067 70.3832 60.3902 71.3214H57.4309C57.3446 71.027 57.1549 70.7692 56.8932 70.5907C56.6315 70.4122 56.3133 70.3236 55.9913 70.3397C55.7566 70.333 55.5236 70.3805 55.3126 70.4783C55.1015 70.576 54.9187 70.721 54.78 70.9007C54.4766 71.2715 54.3261 71.8064 54.3261 72.5005C54.3261 73.1946 54.4766 73.7295 54.78 74.1027C54.9189 74.2821 55.1017 74.4267 55.3128 74.524C55.5239 74.6214 55.7568 74.6685 55.9913 74.6613C56.3134 74.6778 56.6318 74.5894 56.8936 74.4109C57.1554 74.2323 57.345 73.9743 57.4309 73.6796H60.3726C60.1815 74.6097 59.6483 75.4454 58.8679 76.0377C58.0565 76.6242 57.0564 76.9273 56.0365 76.8959C55.2171 76.9105 54.4073 76.7264 53.6841 76.361C53.0051 76.0078 52.4492 75.4751 52.084 74.8277C51.687 74.11 51.4893 73.3083 51.5097 72.4981C51.4927 71.6872 51.6938 70.8854 52.0941 70.1685Z" fill="#EDEDED"/>
<path d="M61.6946 70.1685C62.0591 69.5212 62.6153 68.9891 63.2947 68.6376C64.0172 68.2702 64.8273 68.0852 65.6471 68.1003C66.6665 68.066 67.6676 68.3638 68.4835 68.9442C69.2697 69.5399 69.8037 70.3836 69.9883 71.3214H67.039C66.9532 71.0271 66.764 70.7694 66.5027 70.5909C66.2414 70.4123 65.9236 70.3237 65.6019 70.3396C65.3668 70.3329 65.1335 70.3805 64.922 70.4782C64.7106 70.576 64.5274 70.7209 64.3881 70.9006C64.0872 71.2715 63.9367 71.8063 63.9367 72.5004C63.9367 73.1946 64.0872 73.7294 64.3881 74.1027C64.5275 74.2821 64.7108 74.4267 64.9223 74.524C65.1337 74.6213 65.367 74.6684 65.6019 74.6613C65.9234 74.6778 66.2411 74.5896 66.5025 74.4115C66.7638 74.2334 66.9531 73.976 67.039 73.6819H69.9832C69.7909 74.6116 69.2579 75.4469 68.4785 76.04C67.6681 76.6267 66.6687 76.9299 65.6496 76.8982C64.8302 76.9129 64.0204 76.7288 63.2972 76.3633C62.6163 76.0107 62.0593 75.4768 61.6946 74.8277C61.2976 74.11 61.0999 73.3082 61.1203 72.4981C61.1003 71.6879 61.2979 70.8863 61.6946 70.1685Z" fill="#EDEDED"/>
<path d="M79.7312 73.1277H73.4815C73.4902 73.5843 73.6843 74.0202 74.0232 74.3448C74.3401 74.6255 74.7609 74.7766 75.1944 74.7655C75.4952 74.7861 75.7954 74.7176 76.0533 74.5693C76.3112 74.4211 76.5141 74.2006 76.634 73.9383H79.5757C79.4245 74.5044 79.1393 75.0304 78.7417 75.4764C78.3441 75.9225 77.8446 76.2769 77.281 76.5127C76.655 76.775 75.9765 76.9055 75.2922 76.8955C74.4696 76.9099 73.6567 76.7258 72.9298 76.3606C72.246 76.0087 71.6848 75.476 71.3147 74.8273C70.9128 74.1111 70.7124 73.3087 70.7329 72.4977C70.7128 71.6876 70.9104 70.8859 71.3072 70.1681C71.6731 69.5194 72.2321 68.9871 72.9147 68.6372C73.6433 68.2869 74.4482 68.103 75.2651 68.1001C76.082 68.0972 76.8883 68.2755 77.6196 68.6206C78.2906 68.9607 78.8437 69.4775 79.2121 70.1087C79.6079 70.7986 79.8059 71.5748 79.7864 72.3598C79.7824 72.6165 79.7639 72.8728 79.7312 73.1277ZM76.9499 71.6705C76.9588 71.4686 76.9197 71.2675 76.8354 71.0819C76.7512 70.8963 76.6241 70.7311 76.4634 70.5984C76.1253 70.329 75.6935 70.1883 75.2521 70.2038C74.8248 70.1916 74.4074 70.3277 74.0784 70.5865C73.7454 70.8658 73.5329 71.2518 73.4815 71.6705H76.9499Z" fill="#EDEDED"/>
<path d="M82.5322 76.5128C81.9597 76.2887 81.4585 75.9274 81.0776 75.4645C80.7272 75.0329 80.5195 74.5126 80.4807 73.9693H83.2118C83.2265 74.1108 83.273 74.2477 83.3483 74.3708C83.4236 74.4938 83.5258 74.6001 83.6482 74.6824C83.9253 74.8727 84.2617 74.9698 84.6037 74.9582C84.8846 74.9734 85.1637 74.9071 85.4037 74.768C85.4912 74.7139 85.563 74.6398 85.6126 74.5526C85.6621 74.4654 85.6877 74.3678 85.6871 74.2688C85.6871 74.1494 85.648 74.0329 85.5752 73.9354C85.5024 73.8379 85.3996 73.7642 85.2808 73.7244C84.8567 73.5599 84.4188 73.4295 83.9717 73.3346C83.4231 73.2191 82.8835 73.0682 82.3566 72.8829C81.9246 72.7242 81.5411 72.466 81.2406 72.1317C80.9098 71.7392 80.7429 71.2451 80.7716 70.7435C80.7678 70.2657 80.9174 69.7981 81.2005 69.4027C81.5145 68.9791 81.9495 68.6492 82.4544 68.4519C83.0814 68.2039 83.7565 68.084 84.4357 68.1001C85.5659 68.1001 86.4579 68.3655 87.1116 68.8964C87.7661 69.4333 88.17 70.1939 88.2351 71.0121H85.6871C85.6712 70.8732 85.6265 70.7387 85.5555 70.6163C85.4844 70.4939 85.3885 70.386 85.2733 70.2989C85.0092 70.1161 84.687 70.0247 84.3604 70.0398C84.0963 70.0217 83.833 70.0833 83.6081 70.2157C83.5284 70.2694 83.4638 70.3409 83.4201 70.4238C83.3764 70.5067 83.3548 70.5985 83.3573 70.6912C83.3545 70.8138 83.3921 70.9342 83.4649 71.0356C83.5378 71.1371 83.6421 71.2144 83.7636 71.2569C84.1794 71.4232 84.6122 71.5482 85.0551 71.6301C85.6092 71.7565 86.1544 71.9153 86.6878 72.1056C87.1184 72.2699 87.4992 72.5329 87.7962 72.871C88.137 73.2748 88.3148 73.7805 88.2978 74.2973C88.3031 74.7778 88.1468 75.2474 87.8514 75.638C87.5244 76.0529 87.0826 76.3738 86.5749 76.5651C85.9616 76.7988 85.3048 76.9128 84.6438 76.9003C83.9191 76.9128 83.1996 76.7808 82.5322 76.5128Z" fill="#EDEDED"/>
<path d="M91.288 76.513C90.7156 76.2889 90.2144 75.9276 89.8335 75.4647C89.4831 75.0331 89.2754 74.5128 89.2366 73.9694H91.9677C91.9823 74.111 92.0289 74.2479 92.1041 74.3709C92.1794 74.494 92.2817 74.6003 92.404 74.6826C92.6804 74.8726 93.0158 74.9696 93.357 74.9583C93.6388 74.974 93.9188 74.9076 94.1596 74.7682C94.2468 74.714 94.3182 74.6398 94.3673 74.5526C94.4164 74.4654 94.4416 74.3678 94.4405 74.269C94.4402 74.1521 94.4023 74.0381 94.332 73.9421C94.2617 73.8462 94.1621 73.7728 94.0467 73.7317C93.6226 73.5672 93.1847 73.4368 92.7376 73.3419C92.1883 73.226 91.6478 73.0751 91.12 72.8902C90.6887 72.7314 90.306 72.4732 90.0065 72.139C89.6739 71.7472 89.5052 71.253 89.5325 70.7508C89.5278 70.2732 89.6765 69.8056 89.9588 69.4101C90.2737 68.9872 90.7085 68.6576 91.2128 68.4592C91.8398 68.2112 92.5149 68.0913 93.194 68.1074C94.3259 68.1074 95.2179 68.3728 95.87 68.9037C96.5245 69.4407 96.9284 70.2012 96.9935 71.0194H94.4505C94.4357 70.8805 94.3917 70.7458 94.3211 70.6233C94.2505 70.5008 94.1546 70.393 94.0392 70.3062C93.7751 70.1235 93.4529 70.032 93.1263 70.0471C92.8622 70.029 92.5989 70.0906 92.3739 70.223C92.2938 70.2763 92.2289 70.3477 92.1851 70.4307C92.1413 70.5137 92.12 70.6057 92.1232 70.6985C92.1232 70.8213 92.1636 70.941 92.2386 71.0411C92.3136 71.1412 92.4197 71.2167 92.542 71.2571C92.954 71.422 93.3825 71.5471 93.821 71.6303C94.3748 71.7574 94.9201 71.9162 95.4536 72.1058C95.8818 72.2718 96.26 72.5355 96.5546 72.8736C96.8956 73.2773 97.0734 73.783 97.0562 74.2999C97.0624 74.7802 96.9069 75.2498 96.6123 75.6406C96.2853 76.0555 95.8435 76.3764 95.3358 76.5677C94.7216 76.8016 94.0639 76.9156 93.4022 76.9029C92.6764 76.9151 91.9561 76.7822 91.288 76.513Z" fill="#EDEDED"/>
</svg>
