<svg width="731" height="77" viewBox="0 0 731 77" fill="none" xmlns="http://www.w3.org/2000/svg">
<path fill-rule="evenodd" clip-rule="evenodd" d="M111.342 33.5093C53.4526 47.9201 19.5257 65.1045 6.13215 76.145C4.52445 77.4702 2.1578 77.2278 0.846088 75.6035C-0.465623 73.9792 -0.225674 71.5881 1.38203 70.2628C16.0555 58.1673 51.2592 40.6476 109.544 26.1383C167.965 11.5952 249.88 0 358.26 0C466.642 0 550.954 11.5957 612.363 26.1281C673.669 40.6358 712.381 58.1257 729.389 70.0887C731.092 71.2864 731.512 73.6521 730.326 75.3726C729.141 77.0931 726.799 77.5168 725.096 76.3191C709.211 65.1461 671.552 47.9319 610.65 33.5195C549.851 19.1318 466.118 7.59152 358.26 7.59152C250.399 7.59152 169.096 19.1323 111.342 33.5093Z" fill="#EAEAEA"/>
</svg>
