<svg xmlns="http://www.w3.org/2000/svg" viewBox="0 0 267.71 420.23"><defs><style>.cls-1{fill:#eaeaea;}.cls-11,.cls-2{fill:#0a071c;}.cls-3{fill:#7300bd;}.cls-4{fill:#d8d69c;}.cls-5{fill:#f88312;}.cls-6{fill:#c4273a;}.cls-7{fill:#2a2aba;}.cls-8{fill:#ed1c24;}.cls-9{fill:#fff;}.cls-10{fill:#71a8ff;}.cls-11{font-size:28.08px;font-family:KidsBoys;}</style></defs><g id="Capa_2" data-name="Capa 2"><g id="Capa_1-2" data-name="Capa 1"><path class="cls-1" d="M52.28,420.23l-.54,0c-3.87,0-8.81-.5-13-3.67a12.54,12.54,0,0,1-2.36-18.9,22.28,22.28,0,0,1,12.41-8.1,2.13,2.13,0,0,0,.49-.17s.06-.24.07-.89a9.91,9.91,0,0,0-2.17-6c-3.09-4.44-2.66-8.8,1.25-12.6a19.07,19.07,0,0,1,5.4-3.73l-.43-8,0,0c-.4-5.85-.76-11.91-1-18q-2-1-4.07-2.12a12.91,12.91,0,0,1-6.3-7.5H25.39l-2.15-20.6a51.22,51.22,0,0,1-6.2-7.1c-5.41-7.47-9-16.66-10.81-27.31a109,109,0,0,1-.74-27.22,145.43,145.43,0,0,1,5.77-29.73l.16-.45,1.8-4.4L7,153.62C4.78,133.08,3,117,1.76,105.73c0-.15-.06-.44-.11-.87-.24-1.81-.77-6-1.52-12.9a15.09,15.09,0,0,1,1.31-8.55A18.93,18.93,0,0,1,6,77.63a26.07,26.07,0,0,1,7.42-5l.2-.08A26.14,26.14,0,0,1,34.41,53,22,22,0,0,1,51.63,35.85a22.11,22.11,0,0,1,25.3-17.14,20.39,20.39,0,0,1,35.79-.31,34.25,34.25,0,0,1,3.65.25A20.37,20.37,0,0,1,147.7,31.7a20.52,20.52,0,0,1,13.15,14A32.75,32.75,0,0,1,178,55.58a32.3,32.3,0,0,1,8.08,16.51,24.11,24.11,0,0,1,2.28.92,31,31,0,0,1,7.38,4.83c3.36,2.91,4.32,4.85,4.78,5.79A13.64,13.64,0,0,1,202,92c-.65,5.91-1.24,9.55-1.63,12-.13.8-.23,1.43-.29,1.9-1.47,11-3.49,26.58-6,46.37l-7.18,64,.87,2.14.08.23a146.62,146.62,0,0,1,5.76,29.73,108.57,108.57,0,0,1-.74,27.22c-1.76,10.65-5.39,19.84-10.8,27.31a52,52,0,0,1-5.62,6.51l-2.38,21.19h-17a12.88,12.88,0,0,1-6.3,7.5c-1.62.89-3.16,1.69-4.68,2.42,0,0,.86,14.2.89,14.71l.13,0,.63,8.18a16,16,0,0,1,5.76,3.31c4.44,4,5,8.84,1.71,14-1.68,2.6-1.3,4.31-.62,5.62a23.45,23.45,0,0,1,14.06,7.2,13,13,0,0,1,4,9.84,13.16,13.16,0,0,1-5.14,9.42c-3.82,3.15-8.44,4.68-14.13,4.68-.79,0-1.62,0-2.44-.09a44.93,44.93,0,0,1-18.67-5.41c-5.19-2.88-8.29-6.56-9.47-11.24-.92-3.66,0-6.82.91-9.6.19-.63.4-1.25.6-1.85.41-1.26.84-2.57,1.11-3.79a4,4,0,0,0-.46-3.33c-2.44-3.64-3.16-7.55-2-11s3.93-6,8.05-7.51l.24-.09-.26-9.84c-.12-2.64-.23-5.29-.35-7.94a45.89,45.89,0,0,1-6.76.77c-.38,0-.76,0-1.13,0a23.93,23.93,0,0,1-9.71-2,14.48,14.48,0,0,1-4.45-2.94,7.34,7.34,0,0,1-2.26-6.56,6.85,6.85,0,0,1,.63-1.76,13.8,13.8,0,0,1-4.27-2.68l-.09-.09h-6l-.09.09a13.87,13.87,0,0,1-4.26,2.68,6.47,6.47,0,0,1,.62,1.76,7.31,7.31,0,0,1-2.25,6.56,14.46,14.46,0,0,1-4.46,2.93,23.72,23.72,0,0,1-9.7,2c-.38,0-.76,0-1.14,0A47,47,0,0,1,69,345.8l.71,12.78.58,5.63a10.38,10.38,0,0,1,2.63.44c3.59,1.19,6,3.15,7.15,5.83s.93,5.63-.61,8.92a8.65,8.65,0,0,0-.14,6.59c.43,1.36,1,2.77,1.51,4.13l0,.1c.35.88.7,1.78,1,2.68,2.58,7.14,1.2,12.49-4.48,17.37a42.11,42.11,0,0,1-21,9.46l-.42.07A23.66,23.66,0,0,1,52.28,420.23Z"/><path class="cls-1" d="M197.89,85.08l-.06-.12a14.65,14.65,0,0,0-4.06-4.85,28.25,28.25,0,0,0-6.67-4.38,22.77,22.77,0,0,0-3.74-1.32,29.6,29.6,0,0,0-25-26.1A17.37,17.37,0,0,0,145,34.05a17.37,17.37,0,0,0-27.87-12.26,30.31,30.31,0,0,0-4.85-.39c-.47,0-1,0-1.42,0a17.38,17.38,0,0,0-32.22.76,18.81,18.81,0,0,0-5.45-.79,19.1,19.1,0,0,0-19,17.09A19.09,19.09,0,0,0,37,55.69a23.18,23.18,0,0,0-20.82,19.1c-.54.18-1.08.38-1.6.61a23.09,23.09,0,0,0-6.57,4.42,16.15,16.15,0,0,0-3.91,4.89,12.1,12.1,0,0,0-1,6.92c.75,6.89,1.28,11.06,1.51,12.84l.12.93c1.27,11.23,3,27.35,5.2,47.91l6.34,60.83-2.08,5.09-.09.26a143.07,143.07,0,0,0-5.63,29.06A105.85,105.85,0,0,0,9.19,275c1.68,10.19,5.14,18.95,10.28,26a48,48,0,0,0,6.64,7.43l2,19h15.6c.26.06.51.12.79.16a9.79,9.79,0,0,0,5.29,7.72q2.73,1.5,5.53,2.81c.3,6.64.68,13.29,1.15,19.9l.12,1.65,0,.38-.08,0,.41,7.72a1.75,1.75,0,0,1-.91.62,15.86,15.86,0,0,0-5.5,3.54c-2.87,2.79-3.14,5.49-.87,8.73a12.94,12.94,0,0,1,2.7,7.77c0,2-.54,3.37-2.87,3.92a19.38,19.38,0,0,0-10.76,7.06,9.56,9.56,0,0,0,1.83,14.63c3.5,2.64,7.69,3,11.32,3.06a2.68,2.68,0,0,0,.41,0,22.32,22.32,0,0,0,3.21-.39l.42-.07A39.1,39.1,0,0,0,75.4,408c4.72-4.05,5.77-8.12,3.62-14.07-.33-.9-.68-1.81-1-2.7-.55-1.41-1.12-2.86-1.58-4.32a11.62,11.62,0,0,1,.28-8.77c1.16-2.48,1.35-4.66.58-6.46s-2.6-3.26-5.35-4.17a8.44,8.44,0,0,0-2.09-.31,3.71,3.71,0,0,1-2.36-.59l-.8-7.78-.36-6.5c-.19-3.4-.38-6.84-.57-10.3a45.25,45.25,0,0,0,9.64,1.46,20.91,20.91,0,0,0,9.5-1.69,11.66,11.66,0,0,0,3.55-2.3c2.52-2.55,1.78-5.66-1.55-7.06-.24-.11-.48-.2-1-.39l1.12-.29c2.65-.68,5.27-1.39,7.35-3.34a6.54,6.54,0,0,0,.77-.9H104a6.54,6.54,0,0,0,.77.9c2.08,1.95,4.71,2.66,7.36,3.34l1.12.29c-.48.19-.72.28-1,.39-3.32,1.4-4.07,4.51-1.54,7.06a11.5,11.5,0,0,0,3.54,2.3,20.94,20.94,0,0,0,9.5,1.69,45.37,45.37,0,0,0,9.73-1.48c.18,4.28.36,8.59.55,12.86h0l.26,9.62c-.19.75-.67,1.37-2.26,1.93-3.22,1.15-5.37,3.09-6.21,5.63s-.25,5.52,1.66,8.39a7,7,0,0,1,.9,5.63c-.3,1.37-.76,2.75-1.19,4.08-.2.59-.4,1.2-.58,1.8-.78,2.53-1.59,5.14-.87,8,1,3.88,3.52,6.86,8,9.35a41.87,41.87,0,0,0,17.43,5c.76.05,1.5.08,2.22.08a18.44,18.44,0,0,0,12.22-4,10.21,10.21,0,0,0,4.06-7.27,10.08,10.08,0,0,0-3.14-7.59,20.47,20.47,0,0,0-12.39-6.32,2.31,2.31,0,0,1-2-1.25c-1.64-2.9-1.45-5.83.58-9,2.52-3.88,2.14-7.1-1.2-10.11a13,13,0,0,0-5.59-2.94,2.11,2.11,0,0,1-1-.51l-.6-7.9-.17-.05,0-.43-.21-3.26-.48-8c-.15-2.38-.29-4.79-.44-7.21,2.15-1,4.27-2.05,6.36-3.19a9.76,9.76,0,0,0,5.28-7.72c.28,0,.53-.1.79-.16h16l2.2-19.6a48.37,48.37,0,0,0,6.06-6.86c5.13-7.09,8.59-15.85,10.27-26a105.85,105.85,0,0,0,.71-26.46A143.48,143.48,0,0,0,185,219.49l-.05-.13-1.12-2.75,7.27-64.79c2.51-19.85,4.53-35.45,6-46.39.06-.5.17-1.15.3-2,.38-2.37,1-6,1.61-11.82a10.71,10.71,0,0,0-1.15-6.55ZM16.23,249.41a139.08,139.08,0,0,1,2.16-15l.46,4.34,4.47,43.64,1.24,12.26C15.66,280.92,15.07,262.62,16.23,249.41Zm159,44.26,6.22-55.44C184.08,253.64,185.5,276.82,175.21,293.67Z"/><path class="cls-1" d="M196.14,70.85l-2.37-.74.19-2.42,1.7-18.51.57-6.21a60.13,60.13,0,0,1-10.52-3.54,29.31,29.31,0,0,1-9.21-6.16,15,15,0,0,1-4.51-10,21.59,21.59,0,0,1,.66-5.8,20.29,20.29,0,0,1,3.43-7.63A19.88,19.88,0,0,1,183.32,4a32.72,32.72,0,0,1,8.56-2.8A59.14,59.14,0,0,1,202.3.07l1.47,0c1.42,0,2.83,0,4.24,0s2.64,0,3.79.07c3.09.13,6.45.39,10.28.81,2.85.31,5.71.79,8.4,1.26A103.39,103.39,0,0,1,241.3,4.66a97.58,97.58,0,0,1,11.08,3.82,35.53,35.53,0,0,1,9.23,5.39,15.76,15.76,0,0,1,5.75,8.86,15.83,15.83,0,0,1-.79,9.17,19.9,19.9,0,0,1-2.9,5.52,17.59,17.59,0,0,1-6.35,4.82A35.38,35.38,0,0,1,249,44.91a74.21,74.21,0,0,1-11,1.35c-2.41.14-4.93.21-7.5.21h0c-3.13,0-6.36-.1-9.88-.3l-4.57-.3c-1.17,1.72-4.87,7.08-4.87,7.08l-8.85,12.83-2.51,3.63a5.45,5.45,0,0,1-.37.47l-1.27,1.45Z"/><path class="cls-1" d="M264.43,23.38a12.93,12.93,0,0,0-4.73-7.2,33.16,33.16,0,0,0-8.48-4.93,94.74,94.74,0,0,0-10.75-3.71A101.84,101.84,0,0,0,230,5.09c-2.73-.47-5.46-.93-8.21-1.23-3.35-.36-6.72-.65-10.08-.79-3.11-.13-6.22,0-9.33,0a56.73,56.73,0,0,0-9.9,1,30.38,30.38,0,0,0-7.79,2.54,17.1,17.1,0,0,0-6.18,5.05,17.21,17.21,0,0,0-2.91,6.52,18.74,18.74,0,0,0-.58,5,11.87,11.87,0,0,0,3.67,8A26.41,26.41,0,0,0,187,36.69a60.35,60.35,0,0,0,12,3.84c.42.09.51.24.47.65-.34,3.46-.65,6.94-1,10.41q-.72,7.8-1.43,15.62L197,68l.07,0a3.22,3.22,0,0,0,.24-.28l2.5-3.62,8.85-12.83q2.82-4.09,5.63-8.18a.58.58,0,0,1,.59-.29q2.94.22,5.86.39a149.19,149.19,0,0,0,17.05.1A74.11,74.11,0,0,0,248.34,42,33.43,33.43,0,0,0,256,39.54a14.74,14.74,0,0,0,5.29-4,16.48,16.48,0,0,0,2.43-4.69A13,13,0,0,0,264.43,23.38Z"/><path class="cls-2" d="M166.24,395.8a20,20,0,0,0-12.16-6.2,2.69,2.69,0,0,1-2.27-1.45c-1.85-3.28-1.32-6.4.6-9.36,2.39-3.7,2.11-6.68-1.14-9.61a12.75,12.75,0,0,0-5.42-2.86,2.23,2.23,0,0,1-1.3-.73l-.59-7.75-.17,0c-.08-1.33-.17-2.65-.25-4-.54-9.06-1.11-18.12-1.63-27.18s-1-18-1.46-27h.13c0-.89,0-1.77,0-2.66s.1-1.77,0-2.65a3.56,3.56,0,0,0-3.58-3.73c-3-.32-4.94,1.34-5.06,4.43-.16,4,.23,8,.4,11.95.71,16.12,1.33,32.24,2,48.36h0l.25,9.16c-.25,1-.93,1.69-2.52,2.25-6.44,2.29-8.11,7.82-4.35,13.43a7.37,7.37,0,0,1,.95,5.93c-.44,2-1.17,3.94-1.78,5.91-.78,2.54-1.55,5-.86,7.78,1.09,4.37,4.13,7.06,7.83,9.11a41.59,41.59,0,0,0,17.26,5c5.12.37,10-.42,14.17-3.83C170.23,406.07,170.61,400.34,166.24,395.8ZM163,408.26a15.25,15.25,0,0,1-9.36,2.85,36.45,36.45,0,0,1-19.93-5.67c-4.9-3.15-6.15-7-4.45-12.58,1.14-3.78,2.49-7.53,1.55-11.59,1.33-.31,2.49.89,4-.07-1.32-.74-2.51-1.35-3.63-2.07-2.47-1.58-3.52-3.5-3-5.4.58-2.26,3.68-4.8,6-5.05a1.47,1.47,0,0,1,.62,0c0,.6-.09,7.82,5.46,7.1,5.13-.67,4.76-5.7,4.61-6.85.3-.17.79-.07,1.51.27,2.55,1.18,5.29,2.52,5.29,5.62s-3,3.66-5.24,4.69c-1.18.54-2.62.43-3.69,1.45,2,1.29,3.92.34,6,.13-.49,2.88-.51,5.62,1,8.25a20.06,20.06,0,0,0-14.55,9,2.41,2.41,0,0,0,2-1.14,19.42,19.42,0,0,1,26.82.13C167.53,401,167.18,405.21,163,408.26Z"/><path class="cls-2" d="M153.38,414.39c-.72,0-1.46,0-2.22-.08a41.87,41.87,0,0,1-17.43-5c-4.5-2.49-7-5.47-8-9.35-.72-2.85.09-5.46.87-8,.18-.6.38-1.21.58-1.8.43-1.33.89-2.71,1.19-4.08a7,7,0,0,0-.9-5.63c-1.91-2.87-2.5-5.84-1.66-8.39s3-4.48,6.21-5.63c1.59-.56,2.07-1.18,2.26-1.93l-.26-9.62h0c-.37-8.46-.73-17.05-1.07-25.36-.3-7.37-.62-15-.95-22.47-.05-1.12-.11-2.26-.18-3.36-.16-2.82-.33-5.74-.22-8.62a4.61,4.61,0,0,1,5.5-4.81,3.93,3.93,0,0,1,3.92,4.09,17,17,0,0,1,0,1.75l0,.94v3h-.11l.42,7.83c.33,6.14.67,12.49,1,18.74s.76,12.89,1.15,19.17l.48,8,.21,3.26,0,.43.17.05.6,7.9a2.11,2.11,0,0,0,1,.51,13,13,0,0,1,5.59,2.94c3.34,3,3.72,6.23,1.2,10.11-2,3.13-2.22,6.06-.58,9a2.31,2.31,0,0,0,2,1.25,20.47,20.47,0,0,1,12.39,6.32,10.08,10.08,0,0,1,3.14,7.59,10.21,10.21,0,0,1-4.06,7.27A18.44,18.44,0,0,1,153.38,414.39Zm-18.57-58.52.23,8.69v.05c-.29,1.2-1.1,1.93-2.77,2.53-3,1.06-5,2.84-5.73,5.14s-.21,5,1.57,7.7a7.74,7.74,0,0,1,1,6.23c-.31,1.42-.77,2.82-1.21,4.17-.2.58-.39,1.18-.58,1.77-.78,2.55-1.52,5-.86,7.58.94,3.71,3.29,6.45,7.65,8.86a41.13,41.13,0,0,0,17.1,4.94c5.79.42,10.34-.8,13.9-3.74a9.5,9.5,0,0,0,3.77-6.71,9.38,9.38,0,0,0-2.92-7h0A19.71,19.71,0,0,0,154,390a3.06,3.06,0,0,1-2.56-1.63c-1.77-3.13-1.56-6.42.61-9.77,2.33-3.6,2-6.33-1.07-9.11a12.18,12.18,0,0,0-5.26-2.77,2.62,2.62,0,0,1-1.51-.87l-.07-.1-.58-7.58-.17,0-.06-1c-.07-1.09-.14-2.18-.2-3.26q-.25-4-.49-8c-.38-6.29-.78-12.79-1.15-19.18s-.69-12.6-1-18.74q-.21-4.11-.44-8.22l0-.4h.15V297l0-1a15.51,15.51,0,0,0,0-1.67A3.16,3.16,0,0,0,137,291a4.2,4.2,0,0,0-3.31.84,4.33,4.33,0,0,0-1.32,3.22c-.11,2.84.06,5.74.22,8.54.07,1.11.13,2.25.18,3.37.33,7.49.64,15.11.95,22.48.35,8.48.71,17.25,1.09,25.88l0,.53Zm19,55.63h-.1a36.94,36.94,0,0,1-20.14-5.73c-4.95-3.19-6.38-7.21-4.62-13,.1-.32.19-.63.29-.94,1.08-3.52,2.1-6.84,1.26-10.46l-.09-.38.38-.08a3.57,3.57,0,0,1,1.76.13,3.25,3.25,0,0,0,1.44.13l-.53-.29c-.85-.46-1.66-.9-2.43-1.4-2.6-1.66-3.74-3.73-3.2-5.82.6-2.37,3.78-5.07,6.31-5.35a2.14,2.14,0,0,1,.78,0l.28.09v.3c0,.42-.05,4.13,1.87,5.87a3.75,3.75,0,0,0,3.14.83,4.71,4.71,0,0,0,3.29-1.71,6.71,6.71,0,0,0,1-4.69l0-.26.22-.13a2.13,2.13,0,0,1,1.88.25c2.45,1.14,5.51,2.56,5.51,6,0,2.78-2.33,3.74-4.39,4.58l-1.08.47a7.78,7.78,0,0,1-1.45.44,5.63,5.63,0,0,0-1.7.6,5.68,5.68,0,0,0,3.65.05c.52-.1,1.06-.2,1.61-.26l.51-.05-.09.51c-.41,2.41-.62,5.24.94,8l.28.51-.57.07a19.46,19.46,0,0,0-13.61,7.9,2.29,2.29,0,0,0,.44-.44c.08-.1.17-.19.26-.29a19.39,19.39,0,0,1,13.61-5.42h.1a19.42,19.42,0,0,1,13.65,5.55,7,7,0,0,1-.92,11.52h0A15.67,15.67,0,0,1,153.77,411.5Zm-22.46-29.9c.71,3.67-.34,7.11-1.36,10.43-.1.32-.2.63-.29.94-1.67,5.5-.38,9.13,4.29,12.14a36.09,36.09,0,0,0,19.72,5.61h.1a14.92,14.92,0,0,0,9-2.77,6.22,6.22,0,0,0,.83-10.35,18.58,18.58,0,0,0-13.11-5.32h-.09a18.58,18.58,0,0,0-13.06,5.2l-.21.23a2.49,2.49,0,0,1-2,1l-.8,0,.46-.65a20.36,20.36,0,0,1,14.26-9.06,12.21,12.21,0,0,1-.84-7.49l-1,.19c-1.53.3-3.12.61-4.72-.44l-.41-.27.36-.34a5,5,0,0,1,2.49-1.13,6.83,6.83,0,0,0,1.3-.39c.37-.17.75-.32,1.12-.48,2-.82,3.9-1.6,3.9-3.86,0-2.7-2.19-3.94-5.06-5.27a3.3,3.3,0,0,0-.93-.31,7.27,7.27,0,0,1-1.18,4.91,5.48,5.48,0,0,1-3.8,2,4.54,4.54,0,0,1-3.77-1c-1.9-1.72-2.11-5-2.13-6.12h-.19c-2.21.25-5.11,2.7-5.64,4.77-.44,1.74.58,3.51,2.87,5,.75.48,1.54.91,2.38,1.37.4.21.81.44,1.23.68l.56.31-.54.35a3.08,3.08,0,0,1-2.72.25A5.33,5.33,0,0,0,131.31,381.6Z"/><path class="cls-3" d="M134.36,368.58c-2.31.25-5.4,2.78-6,5.05-.48,1.9.57,3.82,3,5.4,1.12.72,2.31,1.32,3.63,2.07-1.5,1-2.66-.24-4,.06.95,4.06-.4,7.82-1.55,11.6-1.69,5.59-.44,9.43,4.45,12.58A36.48,36.48,0,0,0,153.89,411a15.33,15.33,0,0,0,9.36-2.85c4.15-3.05,4.5-7.27.87-10.93a19.41,19.41,0,0,0-26.81-.13,2.41,2.41,0,0,1-2,1.14,20.06,20.06,0,0,1,14.54-9c-1.48-2.63-1.46-5.37-1-8.25-2.09.21-4,1.16-6-.13,1.07-1,2.51-.91,3.68-1.45,2.27-1,5.24-1.71,5.24-4.69s-2.74-4.44-5.28-5.62c-.72-.34-1.21-.44-1.52-.27.15,1.15.52,6.18-4.61,6.85-5.55.72-5.47-6.5-5.45-7.1A1.49,1.49,0,0,0,134.36,368.58Z"/><path class="cls-2" d="M154,411.4h-.1a37,37,0,0,1-20.14-5.73c-5-3.19-6.37-7.21-4.61-13,.09-.32.19-.63.29-.94,1.08-3.52,2.1-6.84,1.26-10.46l-.09-.38.38-.08a3.58,3.58,0,0,1,1.76.13,3.25,3.25,0,0,0,1.44.13l-.54-.29c-.85-.46-1.65-.9-2.42-1.4-2.6-1.66-3.74-3.73-3.21-5.82.61-2.37,3.79-5.07,6.31-5.35h0a2.18,2.18,0,0,1,.79,0l.28.09v.3c0,.41-.06,4.13,1.87,5.87a3.75,3.75,0,0,0,3.14.83,4.73,4.73,0,0,0,3.29-1.71,6.76,6.76,0,0,0,1-4.69l0-.26.23-.13a2.16,2.16,0,0,1,1.88.24c2.45,1.15,5.51,2.57,5.5,6,0,2.78-2.33,3.74-4.38,4.58-.38.16-.74.31-1.08.47a7.78,7.78,0,0,1-1.45.44,5.37,5.37,0,0,0-1.7.6,5.68,5.68,0,0,0,3.65.05c.52-.1,1.06-.2,1.61-.26l.51-.05-.09.5c-.41,2.42-.62,5.25.93,8l.29.51-.58.07a19.49,19.49,0,0,0-13.6,7.89,2.25,2.25,0,0,0,.44-.43c.08-.1.17-.19.26-.29a19.39,19.39,0,0,1,13.61-5.42h.09A19.4,19.4,0,0,1,164.4,397a7,7,0,0,1-.92,11.52A15.68,15.68,0,0,1,154,411.4Zm-22.45-29.9c.71,3.67-.34,7.11-1.37,10.43-.09.32-.19.63-.28.94-1.67,5.5-.39,9.13,4.29,12.14a36.07,36.07,0,0,0,19.72,5.61H154a14.93,14.93,0,0,0,9-2.77,6.23,6.23,0,0,0,.83-10.35,18.6,18.6,0,0,0-13.11-5.32h-.09a18.58,18.58,0,0,0-13.06,5.2l-.21.23a2.5,2.5,0,0,1-2,1l-.79,0L135,398c3.7-5.25,8.24-8.14,14.26-9.06a12.21,12.21,0,0,1-.84-7.49c-.35,0-.69.12-1,.19-1.53.3-3.12.61-4.72-.44l-.41-.28.36-.33a4.93,4.93,0,0,1,2.49-1.13,7.3,7.3,0,0,0,1.3-.39c.36-.17.74-.32,1.11-.48,2-.82,3.9-1.6,3.9-3.86,0-2.7-2.19-3.94-5-5.27a3.07,3.07,0,0,0-.93-.31,7.32,7.32,0,0,1-1.18,4.91,5.49,5.49,0,0,1-3.81,2,4.52,4.52,0,0,1-3.76-1c-1.9-1.72-2.11-5-2.13-6.12h-.19c-2.22.25-5.12,2.7-5.64,4.77-.44,1.74.57,3.51,2.87,5,.75.48,1.54.91,2.38,1.37.4.21.81.44,1.23.68l.56.31-.54.35a3.08,3.08,0,0,1-2.72.25A5.47,5.47,0,0,0,131.53,381.5Z"/><path class="cls-2" d="M78.65,394.06c-.85-2.36-1.85-4.66-2.6-7a11.93,11.93,0,0,1,.3-9c2.29-4.92.61-8.39-4.54-10.11-1.56-.51-3.77,0-4.7-1.09l-.82-7.93c-.66-12-1.34-24-2-36-.49-9.59-.85-19.18-1.35-28.77-.17-3.11-2.24-5.09-4.84-5s-4.1,1.93-4,5.3c.23,7.39.69,14.76.83,22.15q.41,20.79,1.87,41.53c0,.77.11,1.54.16,2.31l-.08,0,.4,7.56a1.94,1.94,0,0,1-1.17.88,15.64,15.64,0,0,0-5.36,3.46c-2.69,2.62-3,5.13-.82,8.23a13.39,13.39,0,0,1,2.77,8c0,2.14-.65,3.7-3.17,4.29A19,19,0,0,0,39,399.76c-3.91,4.86-3.23,10.31,1.75,14.08,3.08,2.32,6.69,3,11.11,3a19.4,19.4,0,0,0,4-.43,38.62,38.62,0,0,0,19.3-8.69C79.76,403.74,80.73,399.79,78.65,394.06Zm-6.07,12c-7.18,5.62-15.29,8.82-24.64,7.67a11.27,11.27,0,0,1-3-.81c-6.71-2.91-7.52-8.79-1.9-13.48,7.84-6.55,17.36-6.67,25.52-.32.29.22.54.5,1.38.16a20.53,20.53,0,0,0-13.65-7.16c-1.44-.16-1.81-.39-1.44-1.93a9.66,9.66,0,0,0-.14-4.83c-.34-1.23-.28-1.88,1.39-1.66a25.35,25.35,0,0,0,4.64-.19c-.21-1.18-1-1-1.56-1.23-1.88-.64-3.81-1.13-5.64-1.88-3.3-1.36-3.66-3.59-1-6.09a17.18,17.18,0,0,1,4.93-3l0,.14c0,.5-.1,5.48,4.23,6.27a4.66,4.66,0,0,0,2,.1,4.53,4.53,0,0,0,.88-.23c3.65-1.22,3-6.65,2.87-7.45.39-.31,1.17-.16,2.71.15,2.08.42,4.13,1,4.75,3.37.68,2.61-.77,4.4-2.78,5.75-1.34.9-2.84,1.58-4.24,2.38-.6.34-1.45.36-1.73,1.43,2.43.26,4.42-.88,6.61-1.64.13,4.31,1.72,8.21,3.11,12.16C78,399.68,77.56,402.13,72.58,406Z"/><path class="cls-2" d="M52.28,417.23a2.68,2.68,0,0,1-.41,0c-3.63,0-7.82-.42-11.32-3.06a9.56,9.56,0,0,1-1.83-14.63,19.38,19.38,0,0,1,10.76-7.06c2.33-.55,2.83-2,2.87-3.92a12.94,12.94,0,0,0-2.7-7.77c-2.27-3.24-2-5.94.87-8.73A15.86,15.86,0,0,1,56,368.5a1.75,1.75,0,0,0,.91-.62l-.41-7.72.08,0,0-.38-.12-1.65c-1-13.83-1.6-27.81-1.86-41.54-.09-4.27-.28-8.6-.46-12.8-.14-3.06-.28-6.23-.38-9.34-.11-3.54,1.45-5.57,4.37-5.71h.25c2.74,0,4.83,2.21,5,5.34.26,5.06.49,10.2.72,15.17.19,4.46.4,9.07.63,13.6.51,9.83,1.06,19.83,1.6,29.5l.36,6.5.8,7.78a3.71,3.71,0,0,0,2.36.59,8.44,8.44,0,0,1,2.09.31c2.75.91,4.55,2.31,5.35,4.17s.58,4-.58,6.46a11.62,11.62,0,0,0-.28,8.77c.46,1.46,1,2.91,1.58,4.32.34.89.69,1.8,1,2.7,2.15,5.95,1.1,10-3.62,14.07a39.1,39.1,0,0,1-19.49,8.78l-.42.07A22.32,22.32,0,0,1,52.28,417.23Zm5-56.55.4,7.38,0,.09a2.35,2.35,0,0,1-1.38,1.08,15.06,15.06,0,0,0-5.23,3.36c-2.57,2.51-2.8,4.83-.77,7.74a13.66,13.66,0,0,1,2.84,8.22c0,1.92-.48,4-3.48,4.67A18.6,18.6,0,0,0,39.33,400,8.78,8.78,0,0,0,41,413.53c2.68,2,5.83,2.86,10.88,2.91h0a16.75,16.75,0,0,0,3.43-.37l.42-.07a38.23,38.23,0,0,0,19.11-8.6c4.49-3.85,5.44-7.55,3.4-13.21h0c-.33-.9-.68-1.81-1-2.68-.55-1.42-1.12-2.89-1.59-4.37A12.32,12.32,0,0,1,76,377.8c1.06-2.27,1.25-4.23.56-5.82s-2.35-2.91-4.87-3.75a8.07,8.07,0,0,0-1.9-.26c-1.13-.06-2.3-.13-3-1l-.08-.09-.83-8.05-.36-6.52c-.54-9.67-1.09-19.67-1.59-29.5-.24-4.53-.44-9.14-.64-13.6-.23-5-.46-10.12-.72-15.17-.15-2.82-2-4.72-4.43-4.6-3.12.15-3.7,2.75-3.63,4.9.1,3.11.24,6.28.37,9.34.19,4.2.38,8.54.46,12.81.27,13.72.9,27.69,1.87,41.51,0,.55.07,1.1.11,1.65l.07.94Zm-5.57,53.64a31.62,31.62,0,0,1-3.86-.24,11.55,11.55,0,0,1-3.08-.84c-3.36-1.45-5.42-3.7-5.8-6.34s1-5.42,3.81-7.79c8-6.67,17.71-6.79,26-.33l.06.05a.71.71,0,0,0,.34.18,19.94,19.94,0,0,0-13-6.53,2.27,2.27,0,0,1-1.71-.66,2.22,2.22,0,0,1-.07-1.75,9.37,9.37,0,0,0-.13-4.63,2,2,0,0,1,.07-1.81c.32-.36.85-.46,1.74-.34a13.28,13.28,0,0,0,3.07-.08l1-.09c-.16-.28-.41-.33-.75-.4a3.06,3.06,0,0,1-.41-.1c-.67-.23-1.36-.44-2-.65-1.21-.37-2.45-.75-3.64-1.24-1.75-.72-2.74-1.68-3-2.86s.38-2.51,1.81-3.87a17.73,17.73,0,0,1,5-3.12l.43-.2.15.66v.05c0,.52-.08,5.14,3.91,5.87h0a4.41,4.41,0,0,0,1.81.08,3.71,3.71,0,0,0,.81-.21c3.39-1.13,2.7-6.42,2.62-7l0-.22.18-.14c.53-.43,1.36-.26,3,.07,2.18.44,4.38,1.08,5,3.65.63,2.41-.33,4.43-2.94,6.18a29.13,29.13,0,0,1-2.71,1.55c-.51.27-1,.55-1.55.84a4,4,0,0,1-.52.24,1.72,1.72,0,0,0-.81.5,11.34,11.34,0,0,0,4.41-1.1l1.48-.56.51-.17v.53c.11,3.72,1.36,7.22,2.57,10.6.17.48.35,1,.51,1.44,2.24,6.38,1.57,8.89-3.42,12.81l-.24-.31.24.31C66,411.69,59.06,414.32,51.75,414.32Zm4.19-19.51a19.55,19.55,0,0,0-12.62,4.9c-2.62,2.18-3.88,4.7-3.54,7.08s2.24,4.4,5.34,5.74a10.72,10.72,0,0,0,2.87.78c8.53,1.05,16.5-1.43,24.35-7.59,4.69-3.68,5.28-5.91,3.17-11.93L75,392.35a36.41,36.41,0,0,1-2.59-10.3l-1,.37a11,11,0,0,1-5.33,1.11l-.45,0,.12-.43a2.09,2.09,0,0,1,1.48-1.49,3.3,3.3,0,0,0,.42-.19c.52-.29,1.06-.58,1.58-.85A28.59,28.59,0,0,0,71.91,379c2.33-1.56,3.16-3.26,2.62-5.33s-2.42-2.68-4.45-3.09a8.56,8.56,0,0,0-2.21-.29c.19,1.54.46,6.36-3.17,7.58a4.62,4.62,0,0,1-.94.24,5,5,0,0,1-2.11-.1c-4-.74-4.49-4.75-4.54-6.2a16,16,0,0,0-4.3,2.75c-1.21,1.15-1.76,2.24-1.59,3.15s1,1.68,2.5,2.29c1.15.48,2.38.85,3.57,1.22.67.21,1.37.42,2.05.65l.31.08a1.61,1.61,0,0,1,1.51,1.45l.07.43-.44,0c-.49,0-1,.07-1.47.12a14.12,14.12,0,0,1-3.24.07c-.79-.11-1,0-1,.08s0,.87.09,1.09a10.14,10.14,0,0,1,.14,5c-.14.59-.16,1,0,1.12s.63.27,1.16.33A20.71,20.71,0,0,1,70.26,399l.36.41-.51.2a1.46,1.46,0,0,1-1.71-.17l-.05-.05A20.21,20.21,0,0,0,55.94,394.81Z"/><path class="cls-3" d="M45,412.89a11.27,11.27,0,0,0,3,.81c9.35,1.15,17.46-2.05,24.64-7.67,5-3.9,5.41-6.35,3.3-12.37-1.39-4-3-7.85-3.11-12.16-2.19.76-4.18,1.9-6.61,1.64.28-1.07,1.13-1.09,1.73-1.43,1.4-.8,2.9-1.48,4.24-2.38,2-1.35,3.46-3.14,2.78-5.75-.62-2.36-2.67-2.95-4.75-3.37-1.54-.31-2.32-.46-2.71-.15.12.8.78,6.23-2.87,7.45a4.53,4.53,0,0,1-.88.23,4.66,4.66,0,0,1-2-.1c-4.33-.79-4.25-5.77-4.23-6.27l0-.14a17.18,17.18,0,0,0-4.93,3c-2.63,2.5-2.27,4.73,1,6.09,1.83.75,3.76,1.24,5.64,1.88.55.19,1.35.05,1.56,1.23a25.35,25.35,0,0,1-4.64.19c-1.67-.22-1.73.43-1.39,1.66a9.66,9.66,0,0,1,.14,4.83c-.37,1.54,0,1.77,1.44,1.93A20.53,20.53,0,0,1,70,399.25c-.84.34-1.09.06-1.38-.16-8.16-6.35-17.68-6.23-25.52.32C37.45,404.1,38.26,410,45,412.89Z"/><path class="cls-4" d="M156.57,50.06A15.43,15.43,0,0,0,143.13,35.7v-.13a15.42,15.42,0,0,0-25.46-11.7,28,28,0,0,0-5.38-.53c-.92,0-1.83.05-2.73.14a15.42,15.42,0,0,0-29.64,1.23A17.11,17.11,0,0,0,56.1,40.36H56a17.1,17.1,0,0,0-17.1,17.1v.09A21.19,21.19,0,0,0,39,99.92c10.45,0,19.62-2,21.36-12,4.84,8,13.15,7.89,23.22,7.89a27.57,27.57,0,0,0,20.2-8.77,15.42,15.42,0,0,0,27,5.58,27.65,27.65,0,1,0,25.82-42.59Z"/><path class="cls-2" d="M153.94,107.18a29.52,29.52,0,0,1-23.38-11.44A17.37,17.37,0,0,1,103,90.53a29.76,29.76,0,0,1-19.41,7.26H83c-5,0-9.63,0-13.71-1.05a16.89,16.89,0,0,1-8.17-4.59,14.17,14.17,0,0,1-7.37,7.28c-3.62,1.66-8.31,2.43-14.76,2.43a23.13,23.13,0,0,1-2-46.17,19.08,19.08,0,0,1,17.21-17.2,19.1,19.1,0,0,1,19-17.09,18.81,18.81,0,0,1,5.45.79,17.38,17.38,0,0,1,32.22-.76c.47,0,.95,0,1.42,0a30.31,30.31,0,0,1,4.85.39A17.37,17.37,0,0,1,145,34.05a17.37,17.37,0,0,1,13.33,14.26,29.6,29.6,0,0,1-4.4,58.87Zm-23-17.86,1.48,2.27a25.7,25.7,0,1,0,24-39.59l-1.67-.16-.1-1.67a13.44,13.44,0,0,0-11.74-12.54l-1.72-.22,0-1.84a13.47,13.47,0,0,0-22.24-10.22l-.72.61-.93-.18a25.7,25.7,0,0,0-7.54-.36l-1.55.15-.49-1.48a13.47,13.47,0,0,0-25.9,1.08l-.53,2.24-2.13-.91a15.16,15.16,0,0,0-21.1,13.87v1.94H56A15.18,15.18,0,0,0,40.85,57.46v.08l0,2h-2A19.24,19.24,0,0,0,39,98c12.36,0,18.17-3.1,19.44-10.35l.9-5.14L62,87c4.09,6.81,10.94,6.94,20.4,6.94h1.15a25.46,25.46,0,0,0,18.78-8.15l2.39-2.56.91,3.39a13.48,13.48,0,0,0,23.58,4.87Z"/><path class="cls-5" d="M84.2,301.31l.08,0h0l-.23-19.46h0l-.39-33.64-.07,0-1-92.11h0l-.18-15.57h0l-.64-53.68a11.73,11.73,0,0,1-1.82-1.58,45,45,0,0,0-3.83-3.74,26.24,26.24,0,0,0-6-3.92,20.09,20.09,0,0,0-7.87-1.85A19.74,19.74,0,0,0,58,76a18.36,18.36,0,0,0-3.85,1.19A19.53,19.53,0,0,0,50.82,79a23.76,23.76,0,0,0-2.7,2.19,36,36,0,0,0-3.6,4c-.82,1-1.29,1.61-1.48,1.47a.19.19,0,0,1,.05.09h0l3.77,68.4h0l4.51,81h0q.2,3.3.37,6.58.43,7.86.88,15.72l.82,14.84h0l.26,4.07q.45,7.94.89,15.86l.39,7,.17-.06,1.6,25.42H84.38Z"/><path class="cls-2" d="M86.34,327.51H54.9L53.34,303l-.19.08L53,300.31l-.39-7-.88-15.86-.42-6.53h0L44.91,155.27l-3.76-68.4,1.69-.09,1.31-1.71a1.78,1.78,0,0,0-2.07,0A14.18,14.18,0,0,0,43,84a39.09,39.09,0,0,1,3.79-4.17,25.47,25.47,0,0,1,2.92-2.37,21.34,21.34,0,0,1,3.64-2,20,20,0,0,1,4.26-1.32,21.88,21.88,0,0,1,13.3,1.67,28.1,28.1,0,0,1,6.46,4.19,49,49,0,0,1,4,3.9,10.15,10.15,0,0,0,1.49,1.3l.84.57,0,1L84.54,157h0l1,90.14.06,0,0,1,.64,54.29-.09.05Zm-27.79-3.89H82.42l-.17-23.47.08,0-.6-50.93,0,0,0-1-1-93.1h0l-.79-67.3a14.17,14.17,0,0,1-1.31-1.24,46.32,46.32,0,0,0-3.68-3.58,24.1,24.1,0,0,0-5.55-3.63,18.31,18.31,0,0,0-7.11-1.67,18,18,0,0,0-3.84.29A16.63,16.63,0,0,0,54.91,79a17.4,17.4,0,0,0-3,1.66,21.62,21.62,0,0,0-2.48,2A33,33,0,0,0,46,86.42c-.38.46-.68.84-.95,1.14l3.71,67.5,6.73,120.55h0l.1,1.59.89,15.87c.08,1.51.17,3,.25,4.54l.15,0ZM42.76,86.88l-1.51.52a1.7,1.7,0,0,0,.53.75Z"/><path class="cls-3" d="M120.49,86.75h-.07c-.24,0-.81-.58-1.73-1.56a43.57,43.57,0,0,0-3.83-3.74,27,27,0,0,0-6-3.93,22.5,22.5,0,0,0-8.7-2,20.22,20.22,0,0,0-7.29,1.66A21,21,0,0,0,89.54,79a25.66,25.66,0,0,0-2.7,2.19,37.74,37.74,0,0,0-3.59,4c-.82,1-1.29,1.6-1.49,1.47h0a.16.16,0,0,1,0,.08h0l.52,49,2,189.81h29l5.52-189.83Z"/><path class="cls-2" d="M115.29,327.51H82.45l0-1.93-2-189.81-.51-48.14-.06,0V82.9l1.77,1.26.14-.18a39.72,39.72,0,0,1,3.78-4.18,27.32,27.32,0,0,1,2.92-2.37,23.51,23.51,0,0,1,3.64-2,22.34,22.34,0,0,1,8-1.83h.15a24.34,24.34,0,0,1,9.45,2.18A28.59,28.59,0,0,1,116.13,80a49.21,49.21,0,0,1,4,3.89c.28.3.61.66.85.9l1.53-.1-1.64,51.13Zm-29-3.89h25.2l5.46-188,1.55-47.88c-.37-.34-.76-.76-1.24-1.27a42.64,42.64,0,0,0-3.67-3.59A25.09,25.09,0,0,0,108,79.29a20.66,20.66,0,0,0-7.87-1.83A18.26,18.26,0,0,0,93.64,79a19.92,19.92,0,0,0-3,1.66,22.64,22.64,0,0,0-2.48,2,36.1,36.1,0,0,0-3.41,3.77c-.39.49-.71.88-1,1.19l.52,48.12Z"/><path class="cls-5" d="M159.16,87.48l-.1.12-.18-.6c-.18-.59-.23-1-.12-1.09-.17.19-.71-.29-1.6-1.19a51.06,51.06,0,0,0-3.8-3.53,30.2,30.2,0,0,0-2.75-2,24,24,0,0,0-3.3-1.78,20.17,20.17,0,0,0-8-1.73,19.7,19.7,0,0,0-4.18.4,18.3,18.3,0,0,0-3.77,1.23,21.55,21.55,0,0,0-5.89,4A36.62,36.62,0,0,0,122,85.23c-.81,1-1.28,1.58-1.47,1.44h0a.18.18,0,0,1,.05.07l-2.2,66.57.06,0L115.56,251c-.11.06-1.74,57.06-1.65,56.93l-.52,17.63h28.83l13.72-195.9h0Z"/><path class="cls-2" d="M144,327.51H111.39l.57-19.64c0-1,.09-5.48.76-28.65.22-7.53.42-14.44.58-19.44.08-2.76.15-4.92.21-6.41,0-.77,0-1.39.07-1.81,0-.2,0-.41,0-.61h0l2.81-96.53,0,0,0-1.13,2.16-65.65h0V82.91l1.78,1.26.12-.16,0,0a38.89,38.89,0,0,1,3.68-4.08,23.36,23.36,0,0,1,6.43-4.39,19.94,19.94,0,0,1,4.17-1.36,21.6,21.6,0,0,1,4.59-.45,22.2,22.2,0,0,1,8.76,1.9,27.43,27.43,0,0,1,3.56,1.92,33.31,33.31,0,0,1,2.94,2.16c.51.42,1,.84,1.42,1.24s.92.84,1.31,1.23l.9.89.31.3c.39.39.62.62.76.74l2.3-3-3.72,48.74Zm-28.63-3.89h25L154,129.53l3.16-41.48-.14-.49c0-.11-.08-.25-.12-.4-.35-.29-.71-.66-1.12-1.06l-.3-.3a45.4,45.4,0,0,0-3.36-3.11,27.88,27.88,0,0,0-2.56-1.89,22.53,22.53,0,0,0-3-1.64,18.36,18.36,0,0,0-7.21-1.57,17.7,17.7,0,0,0-3.76.37,16.2,16.2,0,0,0-3.37,1.1,19.38,19.38,0,0,0-5.35,3.67,34.49,34.49,0,0,0-3.33,3.69l0,0c-.44.55-.74.92-1,1.21l-2.13,64.58,0,0,0,1.13-2.87,98.82h0c-.23,6-1.11,35.7-1.45,49.11l0-.08ZM158.68,84a1.8,1.8,0,0,0-1.35.59l.93.85,1-1.33A1.6,1.6,0,0,0,158.68,84Z"/><path class="cls-3" d="M56.72,325.56l-12-208.4h0L43,86.76c-.26,0-.84-.62-1.76-1.61a42.49,42.49,0,0,0-3.84-3.74,25.8,25.8,0,0,0-6-3.9A20.08,20.08,0,0,0,19.24,76a17.81,17.81,0,0,0-3.85,1.2,21.29,21.29,0,0,0-6,4A14.19,14.19,0,0,0,5.9,85.56a10.13,10.13,0,0,0-.85,5.86c.94,8.67,1.53,13,1.62,13.76C8,116.53,9.72,132.8,11.88,153.11l8.91,85.46c1.42,13.87,2.91,28.45,4.47,43.64Q26,289.5,26.75,297h.12l3,28.61Z"/><path class="cls-2" d="M58.79,327.51H28.09l-3-28.45H25l-.19-1.91-1.5-14.75-4.47-43.64L9.94,153.31C7.76,132.75,6,116.63,4.74,105.4l-.12-.93c-.23-1.78-.76-6-1.51-12.84a12.1,12.1,0,0,1,1-6.92,16.15,16.15,0,0,1,3.91-4.89,23.09,23.09,0,0,1,6.57-4.42,20.33,20.33,0,0,1,4.25-1.32,21.82,21.82,0,0,1,4.68-.37,22.2,22.2,0,0,1,8.61,2,27.79,27.79,0,0,1,6.45,4.18,46.21,46.21,0,0,1,4,3.9l0,0c.32.35.67.73.92,1l1.22,0L46.68,117ZM31.6,323.62H54.66L42.79,117.27,41.06,87.81c-.36-.34-.76-.77-1.26-1.3l0,0a41.5,41.5,0,0,0-3.68-3.59,24,24,0,0,0-5.55-3.61,18.22,18.22,0,0,0-7.1-1.67,17.82,17.82,0,0,0-3.83.29A16.72,16.72,0,0,0,16.17,79a19.27,19.27,0,0,0-5.45,3.68A12.46,12.46,0,0,0,7.65,86.4,8.39,8.39,0,0,0,7,91.21c.75,6.85,1.28,11,1.5,12.77.07.49.11.81.13,1,1.27,11.24,3,27.37,5.21,47.94l8.9,85.47L27.19,282l1.31,12.86h.1l.21,1.88Z"/><path class="cls-3" d="M196.16,86c-.3-.57-.83-1.94-3.67-4.4a26.21,26.21,0,0,0-6.21-4.08,19.8,19.8,0,0,0-8.23-1.85,18.74,18.74,0,0,0-7,1.26,20.21,20.21,0,0,0-5.57,3.36,28.26,28.26,0,0,0-3.78,3.9c-1,1.2-1.67,2.21-2.12,2.79l-.39.52-5.1,66.92h.15l-5.6,79.94c-.2,0-5.64,75-5.25,74.84l-1.14,16.37h27.45l19.53-174c2.48-19.6,4.51-35.35,6-46.41.27-2,1-5.83,1.91-13.75A8.73,8.73,0,0,0,196.16,86Z"/><path class="cls-2" d="M171.41,327.51H140.13l1.28-18.27c0-.3,0-.63,0-1,0-.57.06-1.39.12-2.45.11-2,.29-4.85.53-8.51.42-6.49,1.05-15.59,1.76-25.63.66-9.22,1.34-18.56,1.88-25.63.6-8,.81-10.71,1-11.79h0l5.47-78.05-.16,0,5.29-69.39.75-1,.46-.63c.42-.57,1-1.35,1.68-2.21a31,31,0,0,1,4-4.17,22.18,22.18,0,0,1,6.1-3.67,20.53,20.53,0,0,1,7.76-1.4,22.14,22.14,0,0,1,9,2,28.25,28.25,0,0,1,6.67,4.38A14.65,14.65,0,0,1,197.83,85l.06.12h0A10.71,10.71,0,0,1,199,91.63c-.65,5.85-1.23,9.45-1.61,11.82-.13.83-.24,1.48-.3,2-1.47,10.94-3.49,26.54-6,46.39Zm-27.11-3.89h23.63l19.34-172.28c2.51-19.86,4.53-35.48,6-46.43.08-.55.19-1.22.32-2.07.38-2.35.95-5.88,1.59-11.64a6.82,6.82,0,0,0-.74-4.33h0l-.1-.19a11,11,0,0,0-3.11-3.63,24.63,24.63,0,0,0-5.75-3.78A18.12,18.12,0,0,0,178,77.6a16.62,16.62,0,0,0-6.3,1.12,18,18,0,0,0-5,3,26.58,26.58,0,0,0-3.53,3.63c-.64.79-1.15,1.49-1.57,2.06q-.29.4-.51.69l0,.06-4.91,64.46h.14l-5.89,84.12-.07,0c-.92,10.65-4.19,57.07-4.9,69.32l.12,0Z"/><path class="cls-2" d="M160.52,84.67c.39.19-.58,1.36-.58,1.36l-4.48-.19.39-2.53,1.17-.39,1.55.39,1.76,1.36"/><path class="cls-2" d="M11.93,149.71H188.77L183.12,209l-66.22.1-12.46-18a4.33,4.33,0,0,0-6.62,0L84.57,209.5l-67.34-.11Z"/><path class="cls-2" d="M84.77,209.89h-.2l-67.7-.11,0-.36-5.33-60.1H189.19l0,.43-5.67,59.6-66.78.1-12.57-18.12a4,4,0,0,0-3-1.39h0a4,4,0,0,0-3,1.4ZM17.58,209l66.79.11,13.15-18.26h0a4.8,4.8,0,0,1,3.6-1.68h0a4.79,4.79,0,0,1,3.6,1.67l0,0,12.34,17.81,65.67-.1,5.57-58.47h-176Z"/><polygon class="cls-6" points="115.54 187.5 115.54 161.76 176.85 161.76 173.5 196.93 122.12 197.01 115.54 187.5"/><polygon class="cls-7" points="26.93 197.36 23.77 161.76 86.91 161.76 86.91 187.11 79.47 197.44 26.93 197.36"/><path class="cls-2" d="M133.4,287.26,65.13,292.2s-1.23-43,26.81-48.06C135,236.34,133.4,287.26,133.4,287.26Z"/><path class="cls-2" d="M100.44,242.48a30.59,30.59,0,0,1,17.8,5.13c16.84,11.6,16.21,38.53,16.18,39.67a.94.94,0,0,1-.93.82L65.21,293a1.19,1.19,0,0,1-.76-.21.82.82,0,0,1-.34-.61A84.91,84.91,0,0,1,67,269.88c4.28-15.23,12.82-24.42,24.69-26.57A49.24,49.24,0,0,1,100.44,242.48Zm31.95,44c0-4.46-.89-27.54-15.45-37.57-6.43-4.43-14.77-5.76-24.79-3.95-24.68,4.47-26,40.15-26,46.31Z"/><path class="cls-8" d="M118.92,279.21c-10.29-3.09-21.89-1.67-32,1.4-7.16,2.18-14.83,5.57-20.54,10.82l63.21-5.14A20.76,20.76,0,0,0,118.92,279.21Z"/><path class="cls-2" d="M106.71,276.47a44.19,44.19,0,0,1,12.5,1.76h0a21.63,21.63,0,0,1,11.2,7.46,1,1,0,0,1,.11,1,1,1,0,0,1-.85.59l-63.21,5.14a1,1,0,0,1-1-.61,1,1,0,0,1,.24-1.15c5-4.64,12.09-8.35,20.93-11A68.74,68.74,0,0,1,106.71,276.47Zm11.92,3.71c-11.14-3.35-23.24-1.09-31.42,1.4a55.49,55.49,0,0,0-17.73,8.58l58.07-4.73a20.67,20.67,0,0,0-8.92-5.25Z"/><path class="cls-9" d="M121.77,258.57c-6.24-9.35-14.18-11.88-22.69-11.88-10.39,0-18.71,6.82-22.49,13.33C80.37,260,118.93,258.57,121.77,258.57Z"/><path class="cls-2" d="M68.21,66l-.07,0A1.44,1.44,0,0,1,67,64.58,5.35,5.35,0,0,0,65.45,61,4,4,0,0,0,62,59.62s-4.73,1-5.06,5.12a1.47,1.47,0,0,1-1.28,1.36h-.08A1.45,1.45,0,0,1,54,64.54c.36-4.71,4.46-7.24,7.45-7.83a6.9,6.9,0,0,1,6.16,2.19A8.23,8.23,0,0,1,70,64.55,1.45,1.45,0,0,1,68.21,66Z"/><path class="cls-2" d="M55.39,66.5A1.8,1.8,0,0,1,54.13,66a1.88,1.88,0,0,1-.57-1.48c.36-4.65,4.28-7.5,7.77-8.18a7.31,7.31,0,0,1,6.51,2.29,8.64,8.64,0,0,1,2.51,5.92A1.84,1.84,0,0,1,69.68,66a1.82,1.82,0,0,1-1.55.38l-.07,0a1.82,1.82,0,0,1-1.45-1.76,4.89,4.89,0,0,0-1.44-3.34A3.64,3.64,0,0,0,62.05,60s-4.44.94-4.75,4.77a1.85,1.85,0,0,1-1.63,1.71h-.28ZM62.49,57a5.67,5.67,0,0,0-1,.1c-3.21.63-6.81,3.24-7.14,7.48a1.1,1.1,0,0,0,.33.86,1,1,0,0,0,.84.29h.07a1.07,1.07,0,0,0,.94-1c.36-4.44,5.33-5.47,5.38-5.48a4.41,4.41,0,0,1,3.82,1.47,5.67,5.67,0,0,1,1.67,3.87,1,1,0,0,0,.83,1l.07,0a1.06,1.06,0,0,0,.89-.22,1,1,0,0,0,.39-.84,7.81,7.81,0,0,0-2.29-5.38A6.85,6.85,0,0,0,62.49,57Z"/><path class="cls-2" d="M105,68,105,68a1.65,1.65,0,0,1-1.3-1.58,6,6,0,0,0-1.76-4.09A4.57,4.57,0,0,0,98,60.81c-.06,0-5.37,1.11-5.75,5.82a1.66,1.66,0,0,1-1.45,1.54h-.09a1.64,1.64,0,0,1-1.81-1.78c.41-5.34,5.06-8.22,8.45-8.88a7.84,7.84,0,0,1,7,2.48A9.4,9.4,0,0,1,107,66.41,1.65,1.65,0,0,1,105,68Z"/><path class="cls-2" d="M90.49,68.57a2,2,0,0,1-1.4-.56,2.07,2.07,0,0,1-.62-1.65c.4-5.24,4.82-8.46,8.76-9.23a8.22,8.22,0,0,1,7.35,2.59,9.67,9.67,0,0,1,2.83,6.68,2,2,0,0,1-2.45,2h0l-.09,0a2,2,0,0,1-1.6-2,5.59,5.59,0,0,0-1.65-3.83A4.21,4.21,0,0,0,98,61.19S93,62.27,92.6,66.66a2.06,2.06,0,0,1-1.8,1.89h-.31Zm8.06-10.79a6.62,6.62,0,0,0-1.17.11c-3.66.72-7.76,3.7-8.13,8.53a1.3,1.3,0,0,0,.38,1,1.27,1.27,0,0,0,1,.34h.08a1.26,1.26,0,0,0,1.11-1.19c.41-5,6-6.15,6.06-6.16a5,5,0,0,1,4.3,1.65,6.35,6.35,0,0,1,1.87,4.36,1.25,1.25,0,0,0,1,1.2l.08,0a1.23,1.23,0,0,0,1.06-.26,1.28,1.28,0,0,0,.46-1A9,9,0,0,0,104,60.26,7.79,7.79,0,0,0,98.55,57.78Z"/><path class="cls-2" d="M57.91,61.28h-.08a1.44,1.44,0,0,1-1.14-1.39,5.29,5.29,0,0,0-1.55-3.61,4,4,0,0,0-3.47-1.36c-.06,0-4.73,1-5.07,5.13a1.45,1.45,0,0,1-1.28,1.35h-.07a1.45,1.45,0,0,1-1.6-1.57c.36-4.7,4.46-7.24,7.44-7.83a6.92,6.92,0,0,1,6.16,2.19,8.28,8.28,0,0,1,2.41,5.65A1.45,1.45,0,0,1,57.91,61.28Z"/><path class="cls-2" d="M45.09,61.8a1.83,1.83,0,0,1-1.27-.51,1.88,1.88,0,0,1-.56-1.49c.36-4.64,4.27-7.49,7.76-8.18a7.28,7.28,0,0,1,6.51,2.3A8.56,8.56,0,0,1,60,59.84a1.83,1.83,0,0,1-2.22,1.82h-.07a1.84,1.84,0,0,1-1.45-1.77,4.87,4.87,0,0,0-1.44-3.34,3.66,3.66,0,0,0-3.12-1.25s-4.44,1-4.75,4.78a1.86,1.86,0,0,1-1.63,1.71h-.27Zm7.1-9.51a5,5,0,0,0-1,.1C48,53,44.36,55.62,44,59.86a1.08,1.08,0,0,0,.32.87,1.06,1.06,0,0,0,.84.28h.08a1.08,1.08,0,0,0,.94-1c.35-4.44,5.32-5.46,5.37-5.47A4.44,4.44,0,0,1,55.42,56a5.7,5.7,0,0,1,1.66,3.87,1.06,1.06,0,0,0,.83,1H58a1.06,1.06,0,0,0,.89-.21,1.1,1.1,0,0,0,.39-.84A7.86,7.86,0,0,0,57,54.46,6.8,6.8,0,0,0,52.19,52.29Z"/><path class="cls-2" d="M133.81,44.12l-.06,0a1.25,1.25,0,0,1-1-1.21,4.62,4.62,0,0,0-1.35-3.13,3.5,3.5,0,0,0-3-1.18s-4.11.85-4.4,4.45a1.28,1.28,0,0,1-1.12,1.18h-.06a1.26,1.26,0,0,1-1.39-1.36c.31-4.09,3.88-6.3,6.47-6.81a6,6,0,0,1,5.35,1.9,7.13,7.13,0,0,1,2.09,4.91A1.26,1.26,0,0,1,133.81,44.12Z"/><path class="cls-2" d="M122.67,44.62a1.68,1.68,0,0,1-1.14-.46,1.7,1.7,0,0,1-.5-1.33c.31-4.07,3.74-6.56,6.79-7.16a6.38,6.38,0,0,1,5.7,2,7.53,7.53,0,0,1,2.2,5.18,1.64,1.64,0,0,1-.6,1.3,1.66,1.66,0,0,1-1.39.34h0l-.06,0a1.63,1.63,0,0,1-1.3-1.58A4.2,4.2,0,0,0,131.13,40,3.15,3.15,0,0,0,128.46,39s-3.82.82-4.08,4.1a1.67,1.67,0,0,1-1.46,1.54h-.25Zm6.17-8.27a5.12,5.12,0,0,0-.87.08c-2,.39-5.84,2.24-6.16,6.45a.91.91,0,0,0,.26.72.86.86,0,0,0,.7.23h.06a.86.86,0,0,0,.77-.82c.32-3.9,4.67-4.8,4.71-4.8a3.92,3.92,0,0,1,3.38,1.28,5.08,5.08,0,0,1,1.46,3.41.86.86,0,0,0,.68.83l.06,0a.9.9,0,0,0,.74-.18.86.86,0,0,0,.31-.69,6.73,6.73,0,0,0-2-4.65A5.92,5.92,0,0,0,128.84,36.35Z"/><path class="cls-2" d="M96,39.84h-.07a1.26,1.26,0,0,1-1.22-1,4.63,4.63,0,0,0-2-2.78,3.49,3.49,0,0,0-3.2-.52s-3.84,1.69-3.37,5.27a1.28,1.28,0,0,1-.85,1.39l-.06,0a1.25,1.25,0,0,1-1.64-1c-.55-4.07,2.47-7,4.9-8a6,6,0,0,1,5.63.74,7.15,7.15,0,0,1,3.07,4.37A1.25,1.25,0,0,1,96,39.84Z"/><path class="cls-2" d="M84.82,42.69a1.65,1.65,0,0,1-.87-.24,1.7,1.7,0,0,1-.77-1.2c-.54-4,2.28-7.19,5.14-8.42a6.4,6.4,0,0,1,6,.77,7.54,7.54,0,0,1,3.23,4.61,1.64,1.64,0,0,1-.31,1.4,1.67,1.67,0,0,1-1.29.62h-.07A1.65,1.65,0,0,1,94.28,39a4.2,4.2,0,0,0-1.81-2.55,3.12,3.12,0,0,0-2.83-.48s-3.57,1.59-3.14,4.86a1.67,1.67,0,0,1-1.1,1.81l-.06,0A1.57,1.57,0,0,1,84.82,42.69Zm5.68-9.52a4.7,4.7,0,0,0-1.87.38c-1.87.8-5.24,3.41-4.68,7.6a.91.91,0,0,0,.41.63.85.85,0,0,0,.73.09l.06,0a.87.87,0,0,0,.58-1c-.51-3.88,3.56-5.66,3.6-5.68a3.89,3.89,0,0,1,3.57.55,5,5,0,0,1,2.14,3,.86.86,0,0,0,.84.68H96a.88.88,0,0,0,.68-.33.89.89,0,0,0,.16-.74,6.72,6.72,0,0,0-2.9-4.13A6.25,6.25,0,0,0,90.5,33.17Z"/><path class="cls-2" d="M96.21,39.83a1.05,1.05,0,0,1-1-.92c-.71-5.27,3.55-8.56,5.9-9.57a5.89,5.89,0,0,1,2.34-.47,7.75,7.75,0,0,1,4.27,1.36,8.44,8.44,0,0,1,3.66,5.2,1,1,0,0,1-1,1.26h-.08a1,1,0,0,1-1-.8A6.37,6.37,0,0,0,106.53,32a5.73,5.73,0,0,0-3.1-1,3.65,3.65,0,0,0-1.5.3c-.06,0-5.28,2.33-4.63,7.3a1,1,0,0,1-.69,1.15l-.07,0A1,1,0,0,1,96.21,39.83Z"/><path class="cls-2" d="M96.21,40.21A1.42,1.42,0,0,1,94.81,39c-.74-5.51,3.68-8.94,6.12-10a6.38,6.38,0,0,1,2.5-.5,8.18,8.18,0,0,1,4.49,1.42,8.91,8.91,0,0,1,3.82,5.44,1.42,1.42,0,0,1-1.38,1.74h-.08a1.4,1.4,0,0,1-1.37-1.1,6.08,6.08,0,0,0-2.59-3.65,5.44,5.44,0,0,0-2.89-.94,3.46,3.46,0,0,0-1.35.26s-5,2.25-4.39,6.9a1.43,1.43,0,0,1-1,1.57l-.08,0a1.35,1.35,0,0,1-.44.07h0Zm7.22-10.95a5.53,5.53,0,0,0-2.19.44c-2.25,1-6.34,4.12-5.66,9.16a.65.65,0,0,0,.63.58h0a.65.65,0,0,0,.19,0l.08,0a.65.65,0,0,0,.42-.73c-.68-5.26,4.81-7.69,4.86-7.71a4.1,4.1,0,0,1,1.66-.33,6.18,6.18,0,0,1,3.32,1.07,6.81,6.81,0,0,1,2.91,4.12.64.64,0,0,0,.62.5h.08a.64.64,0,0,0,.5-.24.62.62,0,0,0,.12-.54,8.07,8.07,0,0,0-3.49-5A7.39,7.39,0,0,0,103.43,29.26Z"/><path class="cls-2" d="M142.3,69.05h-.07a1.26,1.26,0,0,1-1.22-1,4.6,4.6,0,0,0-2-2.78,3.49,3.49,0,0,0-3.2-.52S132,66.46,132.46,70a1.27,1.27,0,0,1-.84,1.39l-.06,0a1.27,1.27,0,0,1-1.65-1c-.54-4.07,2.48-7,4.91-8a6,6,0,0,1,5.63.74,7.15,7.15,0,0,1,3.07,4.37A1.26,1.26,0,0,1,142.3,69.05Z"/><path class="cls-2" d="M131.16,71.91a1.65,1.65,0,0,1-.86-.25,1.7,1.7,0,0,1-.77-1.2c-.55-4,2.28-7.19,5.14-8.42a6.43,6.43,0,0,1,6,.77,7.57,7.57,0,0,1,3.23,4.61,1.64,1.64,0,0,1-.31,1.4,1.67,1.67,0,0,1-1.29.62h-.07a1.65,1.65,0,0,1-1.6-1.28,4.22,4.22,0,0,0-1.81-2.55,3.12,3.12,0,0,0-2.83-.48s-3.57,1.59-3.14,4.86a1.66,1.66,0,0,1-1.11,1.81l-.06,0A1.54,1.54,0,0,1,131.16,71.91Zm5.68-9.52a4.76,4.76,0,0,0-1.87.37c-1.86.8-5.23,3.41-4.67,7.6a.93.93,0,0,0,.41.64.89.89,0,0,0,.73.08l.06,0a.87.87,0,0,0,.58-1c-.51-3.88,3.56-5.67,3.6-5.69a3.92,3.92,0,0,1,3.57.55,5.05,5.05,0,0,1,2.14,3,.86.86,0,0,0,.84.68h.07a.88.88,0,0,0,.68-.33.89.89,0,0,0,.16-.74,6.76,6.76,0,0,0-2.9-4.13A6.24,6.24,0,0,0,136.84,62.39Z"/><path class="cls-2" d="M142.56,69a1.05,1.05,0,0,1-1-.91c-.71-5.28,3.55-8.57,5.9-9.58a5.89,5.89,0,0,1,2.34-.47,7.75,7.75,0,0,1,4.27,1.36,8.51,8.51,0,0,1,3.66,5.2,1,1,0,0,1-.2.87,1,1,0,0,1-.8.39h-.08a1,1,0,0,1-1-.8,6.37,6.37,0,0,0-2.75-3.88,5.72,5.72,0,0,0-3.11-1,3.72,3.72,0,0,0-1.5.29c-.05,0-5.27,2.34-4.62,7.3A1,1,0,0,1,143,69l-.07,0A1,1,0,0,1,142.56,69Z"/><path class="cls-2" d="M142.56,69.43a1.43,1.43,0,0,1-1.4-1.25c-.75-5.51,3.68-8.94,6.12-10a6.38,6.38,0,0,1,2.5-.5,8.19,8.19,0,0,1,4.49,1.43,8.93,8.93,0,0,1,3.82,5.43,1.42,1.42,0,0,1-.27,1.21,1.4,1.4,0,0,1-1.11.53h-.08a1.42,1.42,0,0,1-1.38-1.1,6,6,0,0,0-2.58-3.65,5.44,5.44,0,0,0-2.9-.94,3.27,3.27,0,0,0-1.34.27c-.05,0-5,2.24-4.39,6.89a1.43,1.43,0,0,1-.95,1.57l-.08,0a1.42,1.42,0,0,1-.45.08Zm7.22-11a5.49,5.49,0,0,0-2.19.44c-2.26,1-6.34,4.12-5.66,9.16a.65.65,0,0,0,.63.58h0a.45.45,0,0,0,.2,0l.08,0a.65.65,0,0,0,.42-.73c-.69-5.26,4.81-7.69,4.86-7.71a4.08,4.08,0,0,1,1.65-.32,6.17,6.17,0,0,1,3.33,1.06A6.81,6.81,0,0,1,156,65a.64.64,0,0,0,.62.5h.08a.64.64,0,0,0,.5-.24.62.62,0,0,0,.12-.54,8.1,8.1,0,0,0-3.49-5A7.39,7.39,0,0,0,149.78,58.47Z"/><path class="cls-2" d="M163.91,245.72c-5.91,0-8.54-2.6-9.7-4.78-2-3.82-1.36-9.34,2.07-16.86a74.77,74.77,0,0,1,5.2-9.4l2.43-3.6,2.42,3.6a73.35,73.35,0,0,1,5.2,9.4c3.44,7.52,4.11,13,2.07,16.86C172.44,243.12,169.82,245.72,163.91,245.72Z"/><path class="cls-10" d="M163.91,216.31s-17.8,26.49,0,26.49S163.91,216.31,163.91,216.31Z"/><path class="cls-2" d="M190.65,248.55A143.48,143.48,0,0,0,185,219.49l-.05-.13-2.16-5.3-.34.14c-.55,5.2-1,10.56-2.75,15.59,3.41,14.63,8.35,46.37-6.37,66.69-9.11,12.58-24.63,19-46.14,19v7.79c24.14,0,41.79-7.47,52.45-22.18,5.13-7.09,8.59-15.85,10.27-26A105.85,105.85,0,0,0,190.65,248.55Z"/><path class="cls-2" d="M154.82,309.08a18,18,0,0,0-1.77-1.46c-2.22-1.47-5.39-2.14-7.27,1.11a5.8,5.8,0,0,1-1.31-.53,8.6,8.6,0,0,0-4.15-1.53c-1.64-.22-3.29-.35-4.93-.57a7.92,7.92,0,0,1-4.69-2.34,8.54,8.54,0,0,0-2.62-1.79,3.15,3.15,0,0,0-4.42,2.21,5.42,5.42,0,0,0,.48,4.6c.86,1.36,1.88,2.61,2.88,4a4.85,4.85,0,0,1-1-.12l-9.57-2.87a27.67,27.67,0,0,0-3.83-1.08,5.07,5.07,0,0,0-5.29,2.13,4.92,4.92,0,0,0,1.23,6.31c.64.56,1.34,1,2,1.54-1.25.2-2.48.32-3.67.6a5.21,5.21,0,0,0-3.46,2.31,5.64,5.64,0,0,0,1.24,6.83c2.08,1.95,4.71,2.66,7.36,3.34l1.12.29c-.48.19-.72.28-1,.39-3.32,1.4-4.07,4.51-1.54,7.06a11.5,11.5,0,0,0,3.54,2.3,20.94,20.94,0,0,0,9.5,1.69c9.27-.37,17.64-3.71,25.63-8.09a9.76,9.76,0,0,0,5.28-7.72c3.89-.56,5.54-2.56,5.32-6.51a18.39,18.39,0,0,0-.42-2.87.89.89,0,0,0-.15.27.89.89,0,0,1,.15-.27c0-.17-.07-.33-.1-.49ZM126,307.73a5.4,5.4,0,0,1-.35-2.62c.09-1.16.91-1.55,1.94-1a6,6,0,0,1,1.54,1.17,9.63,9.63,0,0,0,6,3c1.72.23,3.45.4,5.35.62-1.62.87-3,1.65-4.42,2.35-1,.48-2,.85-3,1.26a3.29,3.29,0,0,1-3.3-.51A11.14,11.14,0,0,1,126,307.73Zm29.39,17.65a1.18,1.18,0,0,1-1.48-.72c-.55-1.17-1.22-2.29-1.84-3.43-.35-.65-.84-1.07-1.57-.68s-.59,1.07-.26,1.69c.46.86.87,1.75,1.41,2.56,1.47,2.21.87,4.29-.6,6.08a12.82,12.82,0,0,1-4,3.34c-6.24,3.16-12.7,5.78-19.68,6.82a22.54,22.54,0,0,1-12.6-1.35,9.4,9.4,0,0,1-2.77-1.91c-1.12-1.08-.85-2.35.51-3.1a5.09,5.09,0,0,1,1.35-.54c3-.63,6-1.2,9-1.85,2.34-.5,4.67-1.07,7-1.64.7-.17,1.21-.58,1-1.4s-.85-.84-1.55-.68c-2.12.48-4.24,1-6.37,1.39a24.82,24.82,0,0,1-14.65-1.74,5.07,5.07,0,0,1-3.11-3c-.57-1.64,0-3.11,1.64-3.58a17.25,17.25,0,0,1,4.79-.66c2.78,0,5.56.36,8.34.49q3.25.15,6.51.11c1.13,0,1.62-.5,1.49-1.22-.17-1-.9-.93-1.65-.89a27.39,27.39,0,0,1-11.87-1.54,16.56,16.56,0,0,1-3.31-1.59,6.65,6.65,0,0,1-2-2.36,2,2,0,0,1,1.3-2.89,4.91,4.91,0,0,1,3.52.09c2.61.89,5.17,1.94,7.82,2.67a38.6,38.6,0,0,0,6.67,1.23c3.83.38,7.26-1,10.51-2.89a17.25,17.25,0,0,1,3.57-1.49,5.06,5.06,0,0,1,2-.08,1.61,1.61,0,0,1,1.63,1.49,28.66,28.66,0,0,0,1.68,4.64,1,1,0,0,0,1.56.66c.76-.41.63-1.05.27-1.67a14.39,14.39,0,0,1-1.73-5.34c-.15-1.1.51-1.95,1.59-1.76a17.51,17.51,0,0,1,2.87,1c3.51,3.81,5.45,7.81,5.49,12.58A3,3,0,0,1,155.41,325.38Z"/><path class="cls-4" d="M152.34,309.6a17.51,17.51,0,0,0-2.87-1c-1.08-.19-1.74.66-1.59,1.76a14.39,14.39,0,0,0,1.73,5.34c.36.62.49,1.26-.27,1.67a1,1,0,0,1-1.56-.66,28.66,28.66,0,0,1-1.68-4.64,1.61,1.61,0,0,0-1.63-1.49,5.06,5.06,0,0,0-2,.08,17.25,17.25,0,0,0-3.57,1.49c-3.25,1.93-6.68,3.27-10.51,2.89a38.6,38.6,0,0,1-6.67-1.23c-2.65-.73-5.21-1.78-7.82-2.67a4.91,4.91,0,0,0-3.52-.09,2,2,0,0,0-1.3,2.89,6.65,6.65,0,0,0,2,2.36,16.56,16.56,0,0,0,3.31,1.59,27.39,27.39,0,0,0,11.87,1.54c.75,0,1.48-.08,1.65.89.13.72-.36,1.2-1.49,1.22q-3.26,0-6.51-.11c-2.78-.13-5.56-.46-8.34-.49a17.25,17.25,0,0,0-4.79.66c-1.66.47-2.21,1.94-1.64,3.58a5.07,5.07,0,0,0,3.11,3A24.82,24.82,0,0,0,122.93,330c2.13-.43,4.25-.91,6.37-1.39.7-.16,1.33-.15,1.55.68s-.29,1.23-1,1.4c-2.32.57-4.65,1.14-7,1.64-3,.65-6,1.22-9,1.85a5.09,5.09,0,0,0-1.35.54c-1.36.75-1.63,2-.51,3.1a9.4,9.4,0,0,0,2.77,1.91,22.54,22.54,0,0,0,12.6,1.35c7-1,13.44-3.66,19.68-6.82a12.82,12.82,0,0,0,4-3.34c1.47-1.79,2.07-3.87.6-6.08-.54-.81-.95-1.7-1.41-2.56-.33-.62-.48-1.28.26-1.69s1.22,0,1.57.68c.62,1.14,1.29,2.26,1.84,3.43a1.18,1.18,0,0,0,1.48.72,3,3,0,0,0,2.42-3.2C157.79,317.41,155.85,313.41,152.34,309.6Z"/><path class="cls-4" d="M133.09,312.48c1-.41,2-.78,3-1.26,1.42-.7,2.8-1.48,4.42-2.35-1.9-.22-3.63-.39-5.35-.62a9.63,9.63,0,0,1-6-3,6,6,0,0,0-1.54-1.17c-1-.53-1.85-.14-1.94,1a5.4,5.4,0,0,0,.35,2.62,11.14,11.14,0,0,0,3.77,4.24A3.29,3.29,0,0,0,133.09,312.48Z"/><path class="cls-2" d="M25.79,296.5C15.7,282.58,15,263.21,16.23,249.41a143.22,143.22,0,0,1,4-23c-2.16-3.62-2.32-7.83-2.94-11.94l-1-.4-2.11,5.17-.09.26a143.07,143.07,0,0,0-5.63,29.06A105.85,105.85,0,0,0,9.19,275c1.68,10.19,5.14,18.95,10.28,26,10.65,14.71,28.3,22.18,52.44,22.18v-7.79C50.42,315.44,34.9,309.06,25.79,296.5Z"/><path class="cls-2" d="M44.31,309.08a19.25,19.25,0,0,1,1.77-1.46c2.22-1.47,5.39-2.14,7.28,1.11a5.72,5.72,0,0,0,1.3-.53,8.67,8.67,0,0,1,4.16-1.53c1.63-.22,3.28-.35,4.92-.57a8,8,0,0,0,4.7-2.34A8.49,8.49,0,0,1,71.05,302a3.16,3.16,0,0,1,4.43,2.21,5.43,5.43,0,0,1-.49,4.6c-.85,1.36-1.88,2.61-2.88,4a4.94,4.94,0,0,0,1-.12l9.57-2.87a27.54,27.54,0,0,1,3.82-1.08,5.05,5.05,0,0,1,5.29,2.13,4.92,4.92,0,0,1-1.23,6.31c-.63.56-1.34,1-2,1.54,1.25.2,2.47.32,3.66.6a5.16,5.16,0,0,1,3.46,2.31,5.64,5.64,0,0,1-1.24,6.83c-2.08,1.95-4.7,2.66-7.35,3.34l-1.12.29c.47.19.71.28,1,.39,3.33,1.4,4.07,4.51,1.55,7.06a11.66,11.66,0,0,1-3.55,2.3,20.91,20.91,0,0,1-9.5,1.69c-9.26-.37-17.64-3.71-25.62-8.09a9.79,9.79,0,0,1-5.29-7.72c-3.88-.56-5.53-2.56-5.32-6.51a19.66,19.66,0,0,1,.42-2.87.74.74,0,0,1,.16.27.74.74,0,0,0-.16-.27c0-.17.07-.33.11-.49Zm28.8-1.35a5.52,5.52,0,0,0,.36-2.62c-.1-1.16-.92-1.55-2-1A5.82,5.82,0,0,0,70,305.26a9.66,9.66,0,0,1-6,3c-1.72.23-3.44.4-5.34.62,1.62.87,3,1.65,4.41,2.35,1,.48,2,.85,3,1.26a3.29,3.29,0,0,0,3.3-.51A11,11,0,0,0,73.11,307.73ZM43.72,325.38a1.17,1.17,0,0,0,1.48-.72c.55-1.17,1.23-2.29,1.84-3.43.35-.65.84-1.07,1.57-.68s.59,1.07.26,1.69c-.46.86-.86,1.75-1.4,2.56-1.48,2.21-.87,4.29.59,6.08a13,13,0,0,0,4,3.34c6.23,3.16,12.7,5.78,19.67,6.82a22.58,22.58,0,0,0,12.61-1.35,9.53,9.53,0,0,0,2.77-1.91c1.12-1.08.85-2.35-.52-3.1a5.09,5.09,0,0,0-1.35-.54c-3-.63-6-1.2-8.95-1.85-2.34-.5-4.66-1.07-7-1.64-.7-.17-1.21-.58-1-1.4s.85-.84,1.56-.68c2.12.48,4.24,1,6.37,1.39a24.78,24.78,0,0,0,14.64-1.74,5.09,5.09,0,0,0,3.12-3c.56-1.64,0-3.11-1.65-3.58a17.23,17.23,0,0,0-4.78-.66c-2.79,0-5.57.36-8.35.49-2.16.1-4.34.14-6.5.11-1.14,0-1.63-.5-1.5-1.22.17-1,.91-.93,1.65-.89a27.39,27.39,0,0,0,11.87-1.54A16.64,16.64,0,0,0,88,316.31a6.85,6.85,0,0,0,2-2.36,2,2,0,0,0-1.31-2.89,4.91,4.91,0,0,0-3.52.09c-2.6.89-5.16,1.94-7.81,2.67a38.71,38.71,0,0,1-6.68,1.23c-3.83.38-7.25-1-10.51-2.89a17.4,17.4,0,0,0-3.56-1.49,5.06,5.06,0,0,0-2-.08A1.63,1.63,0,0,0,53,312.08a29.6,29.6,0,0,1-1.67,4.64c-.28.67-.82,1.06-1.56.66s-.64-1.05-.28-1.67a14.21,14.21,0,0,0,1.73-5.34c.15-1.1-.5-1.95-1.59-1.76a17.85,17.85,0,0,0-2.87,1c-3.51,3.81-5.44,7.81-5.48,12.58A3,3,0,0,0,43.72,325.38Z"/><path class="cls-4" d="M46.79,309.6a17.85,17.85,0,0,1,2.87-1c1.09-.19,1.74.66,1.59,1.76a14.21,14.21,0,0,1-1.73,5.34c-.36.62-.48,1.26.28,1.67s1.28,0,1.56-.66A29.6,29.6,0,0,0,53,312.08a1.63,1.63,0,0,1,1.64-1.49,5.06,5.06,0,0,1,2,.08,17.4,17.4,0,0,1,3.56,1.49c3.26,1.93,6.68,3.27,10.51,2.89a38.71,38.71,0,0,0,6.68-1.23c2.65-.73,5.21-1.78,7.81-2.67a4.91,4.91,0,0,1,3.52-.09A2,2,0,0,1,90.08,314a6.85,6.85,0,0,1-2,2.36,16.64,16.64,0,0,1-3.32,1.59,27.39,27.39,0,0,1-11.87,1.54c-.74,0-1.48-.08-1.65.89-.13.72.36,1.2,1.5,1.22,2.16,0,4.34,0,6.5-.11,2.78-.13,5.56-.46,8.35-.49a17.23,17.23,0,0,1,4.78.66c1.67.47,2.21,1.94,1.65,3.58a5.09,5.09,0,0,1-3.12,3A24.78,24.78,0,0,1,76.21,330c-2.13-.43-4.25-.91-6.37-1.39-.71-.16-1.34-.15-1.56.68s.29,1.23,1,1.4c2.33.57,4.65,1.14,7,1.64,3,.65,6,1.22,8.95,1.85a5.09,5.09,0,0,1,1.35.54c1.37.75,1.64,2,.52,3.1a9.53,9.53,0,0,1-2.77,1.91A22.58,22.58,0,0,1,71.7,341c-7-1-13.44-3.66-19.67-6.82a13,13,0,0,1-4-3.34c-1.46-1.79-2.07-3.87-.59-6.08.54-.81.94-1.7,1.4-2.56.33-.62.48-1.28-.26-1.69s-1.22,0-1.57.68c-.61,1.14-1.29,2.26-1.84,3.43a1.17,1.17,0,0,1-1.48.72,3,3,0,0,1-2.41-3.2C41.35,317.41,43.28,313.41,46.79,309.6Z"/><path class="cls-4" d="M66.05,312.48c-1-.41-2.06-.78-3-1.26-1.42-.7-2.79-1.48-4.41-2.35,1.9-.22,3.62-.39,5.34-.62a9.66,9.66,0,0,0,6-3,5.82,5.82,0,0,1,1.53-1.17c1-.53,1.85-.14,2,1a5.52,5.52,0,0,1-.36,2.62A11,11,0,0,1,69.35,312,3.29,3.29,0,0,1,66.05,312.48Z"/><path class="cls-2" d="M197,68c0-.25,0-.5.07-.75q.71-7.81,1.43-15.62c.32-3.47.63-7,1-10.41,0-.41,0-.56-.47-.65a60.35,60.35,0,0,1-12-3.84,26.41,26.41,0,0,1-8.29-5.51,11.87,11.87,0,0,1-3.67-8,18.74,18.74,0,0,1,.58-5,17.28,17.28,0,0,1,2.91-6.52,17.1,17.1,0,0,1,6.18-5,30.38,30.38,0,0,1,7.79-2.54,56.73,56.73,0,0,1,9.9-1c3.11,0,6.22-.13,9.33,0,3.36.14,6.73.43,10.08.79,2.75.3,5.48.76,8.21,1.23a101.84,101.84,0,0,1,10.5,2.45,94.74,94.74,0,0,1,10.75,3.71,33.16,33.16,0,0,1,8.48,4.93,12.93,12.93,0,0,1,4.73,7.2,13,13,0,0,1-.68,7.48,16.48,16.48,0,0,1-2.43,4.69,14.74,14.74,0,0,1-5.29,4A33.43,33.43,0,0,1,248.34,42a74.11,74.11,0,0,1-10.6,1.29,149.19,149.19,0,0,1-17.05-.1q-2.92-.16-5.86-.39a.58.58,0,0,0-.59.29q-2.81,4.09-5.63,8.18l-8.85,12.83-2.5,3.62A3.22,3.22,0,0,1,197,68Zm3.82-10.5.08,0,.26-.37q2.64-3.84,5.29-7.69c2.14-3.1,4.29-6.19,6.42-9.3a.66.66,0,0,1,.69-.31c3.68.24,7.36.5,11,.68,4,.2,8,.18,12,0a74.18,74.18,0,0,0,11.21-1.3,28.84,28.84,0,0,0,7.61-2.52,10.29,10.29,0,0,0,4.32-3.79,17.07,17.07,0,0,0,1.88-4.67,8.8,8.8,0,0,0-2-8.25,19.7,19.7,0,0,0-5-3.9,44.79,44.79,0,0,0-7.15-3.27A109.53,109.53,0,0,0,234.5,8.93a103.7,103.7,0,0,0-12.73-2.24c-3.68-.38-7.37-.67-11.06-.84a85.58,85.58,0,0,0-15.51.63,29.77,29.77,0,0,0-9,2.52,13.76,13.76,0,0,0-6.6,6.16,18.23,18.23,0,0,0-1.76,6.58,8.45,8.45,0,0,0,1,4.93A13.91,13.91,0,0,0,183,31.19a30.39,30.39,0,0,0,7,3.75,64.48,64.48,0,0,0,12,3.32c.37.07.5.18.46.57-.29,2.75-.55,5.49-.8,8.24-.31,3.34-.6,6.68-.89,10C200.77,57.22,200.78,57.34,200.77,57.46Z"/><path class="cls-4" d="M200.77,57.46c0-.12,0-.24,0-.36.29-3.35.58-6.69.89-10,.25-2.75.51-5.49.8-8.24,0-.39-.09-.5-.46-.57a64.48,64.48,0,0,1-12-3.32,30.39,30.39,0,0,1-7-3.75,13.91,13.91,0,0,1-4.18-4.52,8.45,8.45,0,0,1-1-4.93,18.23,18.23,0,0,1,1.76-6.58A13.76,13.76,0,0,1,186.21,9a29.77,29.77,0,0,1,9-2.52,85.58,85.58,0,0,1,15.51-.63c3.69.17,7.38.46,11.06.84A103.7,103.7,0,0,1,234.5,8.93a109.53,109.53,0,0,1,12.95,3.87,44.79,44.79,0,0,1,7.15,3.27,19.7,19.7,0,0,1,5,3.9,8.8,8.8,0,0,1,2,8.25,17.07,17.07,0,0,1-1.88,4.67,10.29,10.29,0,0,1-4.32,3.79,28.84,28.84,0,0,1-7.61,2.52,74.18,74.18,0,0,1-11.21,1.3c-4,.19-8,.21-12,0-3.68-.18-7.36-.44-11-.68a.66.66,0,0,0-.69.31c-2.13,3.11-4.28,6.2-6.42,9.3q-2.66,3.84-5.29,7.69l-.26.37Z"/><text class="cls-11" transform="translate(199.81 25.72) rotate(6.8)">ups...</text></g></g></svg>