<svg width="145" height="30" viewBox="0 0 145 30" fill="none" xmlns="http://www.w3.org/2000/svg">
<path d="M0 10C0 4.47715 4.47715 0 10 0H77.8805V30H9.99999C4.47714 30 0 25.5228 0 20V10Z" fill="#EAEAEA"/>
<path d="M14.891 19.6893C14.0164 19.6893 13.179 19.5666 12.379 19.3213C11.579 19.0653 10.9444 18.74 10.475 18.3453L11.195 16.7293C11.643 17.0813 12.1977 17.3746 12.859 17.6093C13.5204 17.844 14.1977 17.9613 14.891 17.9613C15.4777 17.9613 15.9524 17.8973 16.315 17.7693C16.6777 17.6413 16.9444 17.4706 17.115 17.2573C17.2857 17.0333 17.371 16.7826 17.371 16.5053C17.371 16.164 17.2484 15.892 17.003 15.6893C16.7577 15.476 16.4377 15.3106 16.043 15.1933C15.659 15.0653 15.227 14.948 14.747 14.8413C14.2777 14.7346 13.803 14.612 13.323 14.4733C12.8537 14.324 12.4217 14.1373 12.027 13.9133C11.643 13.6786 11.3284 13.3693 11.083 12.9853C10.8377 12.6013 10.715 12.1106 10.715 11.5133C10.715 10.9053 10.875 10.3506 11.195 9.8493C11.5257 9.3373 12.0217 8.93196 12.683 8.6333C13.355 8.32396 14.203 8.1693 15.227 8.1693C15.899 8.1693 16.5657 8.25463 17.227 8.4253C17.8884 8.59596 18.4644 8.8413 18.955 9.1613L18.299 10.7773C17.7977 10.4786 17.2804 10.26 16.747 10.1213C16.2137 9.97196 15.7017 9.8973 15.211 9.8973C14.635 9.8973 14.1657 9.96663 13.803 10.1053C13.451 10.244 13.1897 10.4253 13.019 10.6493C12.859 10.8733 12.779 11.1293 12.779 11.4173C12.779 11.7586 12.8964 12.036 13.131 12.2493C13.3764 12.452 13.691 12.612 14.075 12.7293C14.4697 12.8466 14.907 12.964 15.387 13.0813C15.867 13.188 16.3417 13.3106 16.811 13.4493C17.291 13.588 17.723 13.7693 18.107 13.9933C18.5017 14.2173 18.8164 14.5213 19.051 14.9053C19.2964 15.2893 19.419 15.7746 19.419 16.3613C19.419 16.9586 19.2537 17.5133 18.923 18.0253C18.603 18.5266 18.107 18.932 17.435 19.2413C16.763 19.54 15.915 19.6893 14.891 19.6893ZM19.8975 19.5293L24.9375 8.3293H26.9855L32.0415 19.5293H29.8655L25.5295 9.4333H26.3615L22.0415 19.5293H19.8975ZM22.2175 16.9373L22.7775 15.3053H28.8255L29.3855 16.9373H22.2175ZM33.4659 19.5293V8.3293H35.1779L40.0739 16.5053H39.1779L43.9939 8.3293H45.7059L45.7219 19.5293H43.7539L43.7379 11.4173H44.1539L40.0579 18.2493H39.1299L34.9699 11.4173H35.4499V19.5293H33.4659ZM54.161 19.5293V9.1293L55.073 10.0733H51.793V8.3293H56.241V19.5293H54.161ZM61.9828 19.6893C61.1935 19.6893 60.4201 19.5773 59.6628 19.3533C58.9161 19.1186 58.2868 18.7986 57.7748 18.3933L58.6708 16.7773C59.0761 17.108 59.5668 17.3746 60.1428 17.5773C60.7188 17.78 61.3215 17.8813 61.9508 17.8813C62.6975 17.8813 63.2788 17.732 63.6948 17.4333C64.1108 17.124 64.3188 16.708 64.3188 16.1853C64.3188 15.6733 64.1268 15.268 63.7428 14.9693C63.3588 14.6706 62.7401 14.5213 61.8868 14.5213H60.8628V13.0973L64.0628 9.2893L64.3348 10.0733H58.3188V8.3293H65.9508V9.7213L62.7508 13.5293L61.6628 12.8893H62.2868C63.6628 12.8893 64.6921 13.1986 65.3748 13.8173C66.0681 14.4253 66.4148 15.2093 66.4148 16.1693C66.4148 16.7986 66.2548 17.38 65.9348 17.9133C65.6148 18.4466 65.1241 18.8786 64.4628 19.2093C63.8121 19.5293 62.9855 19.6893 61.9828 19.6893Z" fill="#8A8A8A"/>
<path d="M95.5007 19.6893C93.9647 19.6893 92.7593 19.2573 91.8847 18.3933C91.0207 17.5293 90.5887 16.2813 90.5887 14.6493V8.3293H92.6687V14.5693C92.6687 15.7213 92.914 16.5586 93.4047 17.0813C93.906 17.604 94.61 17.8653 95.5167 17.8653C96.4233 17.8653 97.122 17.604 97.6127 17.0813C98.1033 16.5586 98.3487 15.7213 98.3487 14.5693V8.3293H100.397V14.6493C100.397 16.2813 99.9593 17.5293 99.0847 18.3933C98.2207 19.2573 97.026 19.6893 95.5007 19.6893ZM106.782 19.6893C105.907 19.6893 105.07 19.5666 104.27 19.3213C103.47 19.0653 102.835 18.74 102.366 18.3453L103.086 16.7293C103.534 17.0813 104.088 17.3746 104.75 17.6093C105.411 17.844 106.088 17.9613 106.782 17.9613C107.368 17.9613 107.843 17.8973 108.206 17.7693C108.568 17.6413 108.835 17.4706 109.006 17.2573C109.176 17.0333 109.262 16.7826 109.262 16.5053C109.262 16.164 109.139 15.892 108.894 15.6893C108.648 15.476 108.328 15.3106 107.934 15.1933C107.55 15.0653 107.118 14.948 106.638 14.8413C106.168 14.7346 105.694 14.612 105.214 14.4733C104.744 14.324 104.312 14.1373 103.918 13.9133C103.534 13.6786 103.219 13.3693 102.974 12.9853C102.728 12.6013 102.606 12.1106 102.606 11.5133C102.606 10.9053 102.766 10.3506 103.086 9.8493C103.416 9.3373 103.912 8.93196 104.574 8.6333C105.246 8.32396 106.094 8.1693 107.118 8.1693C107.79 8.1693 108.456 8.25463 109.118 8.4253C109.779 8.59596 110.355 8.8413 110.846 9.1613L110.19 10.7773C109.688 10.4786 109.171 10.26 108.638 10.1213C108.104 9.97196 107.592 9.8973 107.102 9.8973C106.526 9.8973 106.056 9.96663 105.694 10.1053C105.342 10.244 105.08 10.4253 104.91 10.6493C104.75 10.8733 104.67 11.1293 104.67 11.4173C104.67 11.7586 104.787 12.036 105.022 12.2493C105.267 12.452 105.582 12.612 105.966 12.7293C106.36 12.8466 106.798 12.964 107.278 13.0813C107.758 13.188 108.232 13.3106 108.702 13.4493C109.182 13.588 109.614 13.7693 109.998 13.9933C110.392 14.2173 110.707 14.5213 110.942 14.9053C111.187 15.2893 111.31 15.7746 111.31 16.3613C111.31 16.9586 111.144 17.5133 110.814 18.0253C110.494 18.5266 109.998 18.932 109.326 19.2413C108.654 19.54 107.806 19.6893 106.782 19.6893ZM111.788 19.5293L116.828 8.3293H118.876L123.932 19.5293H121.756L117.42 9.4333H118.252L113.932 19.5293H111.788ZM114.108 16.9373L114.668 15.3053H120.716L121.276 16.9373H114.108Z" fill="#EAEAEA"/>
<path fill-rule="evenodd" clip-rule="evenodd" d="M125.085 4H79.8128V26H125.085C128.398 26 131.085 23.3137 131.085 20V10C131.085 6.6863 128.398 4 125.085 4ZM75.8128 0V30H125.085C130.608 30 135.085 25.5228 135.085 20V10C135.085 4.47715 130.608 0 125.085 0H75.8128Z" fill="#EAEAEA"/>
</svg>
