<svg width="144" height="30" viewBox="0 0 144 30" fill="none" xmlns="http://www.w3.org/2000/svg">
<rect x="2" y="2" width="140" height="26" rx="13" stroke="#EAEAEA" stroke-width="4"/>
<path d="M2 16C2 9.37258 7.37258 4 14 4H74V28H14C7.37258 28 2 22.6274 2 16V16Z" fill="#EAEAEA"/>
<path d="M16.976 20.16C16.1013 20.16 15.264 20.0373 14.464 19.792C13.664 19.536 13.0293 19.2107 12.56 18.816L13.28 17.2C13.728 17.552 14.2827 17.8453 14.944 18.08C15.6053 18.3147 16.2827 18.432 16.976 18.432C17.5627 18.432 18.0373 18.368 18.4 18.24C18.7627 18.112 19.0293 17.9413 19.2 17.728C19.3707 17.504 19.456 17.2533 19.456 16.976C19.456 16.6347 19.3333 16.3627 19.088 16.16C18.8427 15.9467 18.5227 15.7813 18.128 15.664C17.744 15.536 17.312 15.4187 16.832 15.312C16.3627 15.2053 15.888 15.0827 15.408 14.944C14.9387 14.7947 14.5067 14.608 14.112 14.384C13.728 14.1493 13.4133 13.84 13.168 13.456C12.9227 13.072 12.8 12.5813 12.8 11.984C12.8 11.376 12.96 10.8213 13.28 10.32C13.6107 9.808 14.1067 9.40267 14.768 9.104C15.44 8.79467 16.288 8.64 17.312 8.64C17.984 8.64 18.6507 8.72533 19.312 8.896C19.9733 9.06667 20.5493 9.312 21.04 9.632L20.384 11.248C19.8827 10.9493 19.3653 10.7307 18.832 10.592C18.2987 10.4427 17.7867 10.368 17.296 10.368C16.72 10.368 16.2507 10.4373 15.888 10.576C15.536 10.7147 15.2747 10.896 15.104 11.12C14.944 11.344 14.864 11.6 14.864 11.888C14.864 12.2293 14.9813 12.5067 15.216 12.72C15.4613 12.9227 15.776 13.0827 16.16 13.2C16.5547 13.3173 16.992 13.4347 17.472 13.552C17.952 13.6587 18.4267 13.7813 18.896 13.92C19.376 14.0587 19.808 14.24 20.192 14.464C20.5867 14.688 20.9013 14.992 21.136 15.376C21.3813 15.76 21.504 16.2453 21.504 16.832C21.504 17.4293 21.3387 17.984 21.008 18.496C20.688 18.9973 20.192 19.4027 19.52 19.712C18.848 20.0107 18 20.16 16.976 20.16ZM21.9825 20L27.0225 8.8H29.0705L34.1265 20H31.9505L27.6145 9.904H28.4465L24.1265 20H21.9825ZM24.3025 17.408L24.8625 15.776H30.9105L31.4705 17.408H24.3025ZM35.5509 20V8.8H37.2629L42.1589 16.976H41.2629L46.0789 8.8H47.7909L47.8069 20H45.8389L45.8229 11.888H46.2389L42.1429 18.72H41.2149L37.0549 11.888H37.5349V20H35.5509ZM56.246 20V9.6L57.158 10.544H53.878V8.8H58.326V20H56.246ZM64.0677 20.16C63.2784 20.16 62.5051 20.048 61.7478 19.824C61.0011 19.5893 60.3718 19.2693 59.8598 18.864L60.7558 17.248C61.1611 17.5787 61.6518 17.8453 62.2278 18.048C62.8038 18.2507 63.4064 18.352 64.0358 18.352C64.7824 18.352 65.3638 18.2027 65.7798 17.904C66.1958 17.5947 66.4038 17.1787 66.4038 16.656C66.4038 16.144 66.2118 15.7387 65.8278 15.44C65.4438 15.1413 64.8251 14.992 63.9718 14.992H62.9478V13.568L66.1478 9.76L66.4198 10.544H60.4038V8.8H68.0358V10.192L64.8358 14L63.7478 13.36H64.3718C65.7478 13.36 66.7771 13.6693 67.4598 14.288C68.1531 14.896 68.4998 15.68 68.4998 16.64C68.4998 17.2693 68.3398 17.8507 68.0198 18.384C67.6998 18.9173 67.2091 19.3493 66.5478 19.68C65.8971 20 65.0704 20.16 64.0677 20.16Z" fill="#55008B"/>
<path d="M97.5856 20.16C96.0496 20.16 94.8443 19.728 93.9696 18.864C93.1056 18 92.6736 16.752 92.6736 15.12V8.8H94.7536V15.04C94.7536 16.192 94.999 17.0293 95.4896 17.552C95.991 18.0747 96.695 18.336 97.6016 18.336C98.5083 18.336 99.207 18.0747 99.6976 17.552C100.188 17.0293 100.434 16.192 100.434 15.04V8.8H102.482V15.12C102.482 16.752 102.044 18 101.17 18.864C100.306 19.728 99.111 20.16 97.5856 20.16ZM108.867 20.16C107.992 20.16 107.155 20.0373 106.355 19.792C105.555 19.536 104.92 19.2107 104.451 18.816L105.171 17.2C105.619 17.552 106.173 17.8453 106.835 18.08C107.496 18.3147 108.173 18.432 108.867 18.432C109.453 18.432 109.928 18.368 110.291 18.24C110.653 18.112 110.92 17.9413 111.091 17.728C111.261 17.504 111.347 17.2533 111.347 16.976C111.347 16.6347 111.224 16.3627 110.979 16.16C110.733 15.9467 110.413 15.7813 110.019 15.664C109.635 15.536 109.203 15.4187 108.723 15.312C108.253 15.2053 107.779 15.0827 107.299 14.944C106.829 14.7947 106.397 14.608 106.003 14.384C105.619 14.1493 105.304 13.84 105.059 13.456C104.813 13.072 104.691 12.5813 104.691 11.984C104.691 11.376 104.851 10.8213 105.171 10.32C105.501 9.808 105.997 9.40267 106.659 9.104C107.331 8.79467 108.179 8.64 109.203 8.64C109.875 8.64 110.541 8.72533 111.203 8.896C111.864 9.06667 112.44 9.312 112.931 9.632L112.275 11.248C111.773 10.9493 111.256 10.7307 110.723 10.592C110.189 10.4427 109.677 10.368 109.187 10.368C108.611 10.368 108.141 10.4373 107.779 10.576C107.427 10.7147 107.165 10.896 106.995 11.12C106.835 11.344 106.755 11.6 106.755 11.888C106.755 12.2293 106.872 12.5067 107.107 12.72C107.352 12.9227 107.667 13.0827 108.051 13.2C108.445 13.3173 108.883 13.4347 109.363 13.552C109.843 13.6587 110.317 13.7813 110.787 13.92C111.267 14.0587 111.699 14.24 112.083 14.464C112.477 14.688 112.792 14.992 113.027 15.376C113.272 15.76 113.395 16.2453 113.395 16.832C113.395 17.4293 113.229 17.984 112.899 18.496C112.579 18.9973 112.083 19.4027 111.411 19.712C110.739 20.0107 109.891 20.16 108.867 20.16ZM113.873 20L118.913 8.8H120.961L126.017 20H123.841L119.505 9.904H120.337L116.017 20H113.873ZM116.193 17.408L116.753 15.776H122.801L123.361 17.408H116.193Z" fill="#EAEAEA"/>
</svg>
